<?xml version="1.0" encoding="iso-8859-1"?>
<!-- Generator: Adobe Illustrator 19.0.0, SVG Export Plug-In . SVG Version: 6.00 Build 0)  -->
<svg version="1.1" id="Layer_1" xmlns="http://www.w3.org/2000/svg" xmlns:xlink="http://www.w3.org/1999/xlink" x="0px" y="0px"
	 viewBox="0 0 512.001 512.001" style="enable-background:new 0 0 512.001 512.001;" xml:space="preserve">
<path style="fill:#F7B239;" d="M297.031,343.253c17.646,12.75,29.138,33.501,29.138,56.927c0,38.748-31.416,70.164-70.164,70.164
	c-38.76,0-70.164-31.416-70.164-70.164c0-23.426,11.481-44.177,29.126-56.915c4.205-1.927,8.194-4.25,11.9-6.925
	c8.874-4.069,18.745-6.324,29.138-6.324c10.393,0,20.252,2.255,29.126,6.313C288.836,339.015,292.825,341.338,297.031,343.253z
	 M287.374,398.82c0-14.552-11.786-26.338-26.327-26.338c-14.541,0-26.327,11.787-26.327,26.338c0,14.54,11.787,26.327,26.327,26.327
	C275.588,425.147,287.374,413.36,287.374,398.82z"/>
<path style="fill:#E09B2D;" d="M222.658,400.18c0-23.426,11.481-44.177,29.126-56.915c4.205-1.927,8.194-4.25,11.9-6.925
	c3.435-1.575,7.024-2.871,10.73-3.876c-5.867-1.591-12.037-2.448-18.41-2.448c-10.393,0-20.264,2.255-29.138,6.324
	c-3.706,2.675-7.695,4.998-11.9,6.925c-17.646,12.738-29.126,33.49-29.126,56.915c0,38.748,31.404,70.164,70.164,70.164
	c6.372,0,12.538-0.865,18.406-2.457C244.589,459.798,222.658,432.557,222.658,400.18z"/>
<path style="fill:#F95428;" d="M156.702,343.253c17.646,12.75,29.138,33.501,29.138,56.927c0,38.748-31.416,70.164-70.164,70.164
	c-38.76,0-70.164-31.416-70.164-70.164c0-12.716,3.377-24.638,9.293-34.918c12.104-21.068,34.827-35.246,60.871-35.246
	c10.393,0,20.252,2.255,29.126,6.313C148.508,339.015,152.498,341.338,156.702,343.253z M123.201,389.413
	c0-14.552-11.787-26.338-26.327-26.338s-26.327,11.787-26.327,26.338c0,14.54,11.787,26.327,26.327,26.327
	S123.201,403.954,123.201,389.413z"/>
<path style="fill:#E54728;" d="M124.201,464.02c-3.706-2.675-7.695-4.998-11.9-6.925c-17.646-12.739-29.126-33.49-29.126-56.915
	c0-24.548,12.603-46.137,31.688-58.683c2.346-1.19,4.624-2.505,6.8-3.944c4.083-2.066,8.406-3.718,12.897-4.964
	c-6.009-1.675-12.341-2.573-18.883-2.573c-11.401,0-22.156,2.72-31.676,7.537c-2.176,1.439-4.454,2.754-6.8,3.944
	c-19.085,12.546-31.688,34.136-31.688,58.683c0,23.426,11.481,44.177,29.126,56.915c4.205,1.927,8.194,4.25,11.9,6.925
	c8.874,4.069,18.745,6.324,29.138,6.324c6.522,0,12.838-0.89,18.831-2.557C130.951,466.798,127.507,465.535,124.201,464.02z"/>
<path style="fill:#2BA5F7;" d="M266.555,133.09c14.54,0,26.338,11.798,26.338,26.338c0,14.541-11.798,26.327-26.338,26.327
	s-26.327-11.787-26.327-26.327C240.228,144.888,252.015,133.09,266.555,133.09z"/>
<path style="fill:#564C89;" d="M457.202,365.262c5.916,10.279,9.293,22.202,9.293,34.918c0,17.011-6.063,32.628-16.15,44.777
	l-54.49-114.93c0.159-0.011,0.317-0.011,0.476-0.011C422.364,330.016,445.087,344.194,457.202,365.262z"/>
<path style="fill:#423D72;" d="M342.306,355.414l54.49,114.919c-0.159,0.011-0.306,0.011-0.465,0.011
	c-38.748,0-70.164-31.416-70.164-70.164C326.168,383.169,332.231,367.563,342.306,355.414z"/>
<path style="fill:#F7B239;" d="M450.346,444.957c-8.999,10.857-21.216,18.949-35.178,22.825c-0.748,0.204-1.507,0.408-2.267,0.589
	c-1.519,0.374-3.06,0.691-4.613,0.952c-0.771,0.136-1.553,0.261-2.346,0.363c-0.748,0.102-1.507,0.193-2.267,0.272
	c-0.068,0.011-0.125,0.011-0.193,0.023c-0.612,0.068-1.224,0.113-1.836,0.159c-1.598,0.125-3.219,0.193-4.851,0.193l-7.707-16.24
	l-25.25-53.266l-21.533-45.412c0.567-0.68,1.133-1.349,1.745-2.006c0.363-0.419,0.748-0.839,1.133-1.258
	c0.102-0.102,0.204-0.215,0.306-0.317c0.374-0.397,0.771-0.793,1.156-1.19c0.442-0.442,0.895-0.884,1.349-1.315
	c0.397-0.385,0.793-0.759,1.201-1.122c0.136-0.125,0.283-0.249,0.419-0.374c0.261-0.238,0.521-0.465,0.793-0.703
	c0.408-0.34,0.816-0.691,1.224-1.031c0.136-0.113,0.272-0.227,0.408-0.329c0.329-0.283,0.669-0.544,1.009-0.805
	c0.317-0.261,0.646-0.51,0.975-0.748c0.238-0.193,0.476-0.374,0.714-0.544c0.204-0.147,0.408-0.306,0.612-0.442
	c4.193-1.904,8.149-4.227,11.843-6.891c0.544-0.249,1.099-0.487,1.643-0.725c1.655-0.714,3.355-1.36,5.077-1.938
	c0.578-0.193,1.156-0.374,1.734-0.555c0.476-0.147,0.952-0.295,1.428-0.419c0.136-0.045,0.272-0.091,0.397-0.125
	c0.567-0.147,1.133-0.306,1.7-0.442c0.499-0.125,0.986-0.249,1.485-0.351c0.204-0.057,0.397-0.102,0.589-0.136
	c0.329-0.079,0.657-0.147,0.997-0.215c0.374-0.079,0.737-0.147,1.111-0.215c0.272-0.057,0.544-0.102,0.816-0.147
	c0.544-0.102,1.088-0.193,1.632-0.261c0.023-0.011,0.034-0.011,0.057-0.011c0.533-0.091,1.077-0.159,1.621-0.227
	c0.533-0.068,1.065-0.125,1.598-0.181c0.363-0.034,0.725-0.068,1.088-0.102c1.247-0.102,2.505-0.181,3.774-0.227
	c0.635-0.023,1.281-0.034,1.915-0.034l4.227,8.919L450.346,444.957z"/>
<g>
	<path style="fill:#2BA5F7;" d="M209.855,213.477v0.011l-89.952,89.952c-2.731-7.491-4.227-15.583-4.227-24.026
		c0-12.716,3.377-24.638,9.293-34.918c12.104-21.068,34.827-35.246,60.871-35.246C194.272,209.249,202.364,210.734,209.855,213.477z
		"/>
	<path style="fill:#2BA5F7;" d="M251.765,255.376c2.743,7.491,4.239,15.594,4.239,24.038c0,23.426-11.492,44.177-29.138,56.927
		c-4.205,1.915-8.194,4.239-11.9,6.925c-8.874,4.057-18.734,6.313-29.126,6.313c-8.443,0-16.535-1.485-24.026-4.227v-0.011
		L251.765,255.376z"/>
	<path style="fill:#2BA5F7;" d="M96.874,363.075c14.54,0,26.327,11.787,26.327,26.338c0,14.54-11.787,26.327-26.327,26.327
		s-26.327-11.786-26.327-26.327C70.547,374.862,82.334,363.075,96.874,363.075z"/>
</g>
<path style="fill:#F95428;" d="M261.047,372.482c14.54,0,26.327,11.787,26.327,26.338c0,14.54-11.786,26.327-26.327,26.327
	c-14.541,0-26.327-11.787-26.327-26.327C234.72,384.268,246.507,372.482,261.047,372.482z"/>
<path style="fill:#564C89;" d="M251.765,255.376l-89.952,89.963v0.011c-1.734-0.623-3.445-1.326-5.111-2.097
	c-3.706-2.675-7.695-4.998-11.9-6.925c-11.288-8.149-20.048-19.572-24.899-32.889l89.952-89.952v-0.011
	c2.641,0.952,5.202,2.063,7.673,3.321c2.176,1.439,4.454,2.754,6.8,3.944C236.839,228.969,246.563,241.084,251.765,255.376z"/>
<path style="fill:#423D72;" d="M156.702,343.253c0,0-7.695-4.998-11.9-6.925c-11.288-8.149-20.048-19.572-24.899-32.889l34.17-34.17
	c-0.487,3.309-0.737,6.698-0.737,10.143c0,20.456,22.712,51.691,22.712,51.691L156.702,343.253z"/>
<path style="fill:#2197D8;" d="M204.721,211.822c-4.488,1.247-8.806,2.901-12.897,4.964c-2.176,1.439-4.454,2.754-6.8,3.944
	c-16.41,10.789-28.027,28.254-30.951,48.54l-34.17,34.17c-2.743-7.491-4.227-15.594-4.227-24.026
	c0-24.548,12.603-46.137,31.688-58.683c2.346-1.19,4.624-2.505,6.8-3.944c9.52-4.817,20.275-7.537,31.676-7.537
	C192.379,209.249,198.715,210.145,204.721,211.822z"/>
<path style="fill:#F95428;" d="M387.038,244.496c5.916,10.279,9.293,22.202,9.293,34.918c0,23.426-11.492,44.177-29.138,56.927
	c-4.205,1.915-8.183,4.239-11.889,6.913c-8.874,4.069-18.745,6.324-29.138,6.324c-10.393,0-20.264-2.255-29.138-6.324
	c-3.706-2.675-7.695-4.998-11.9-6.925c-17.646-12.738-29.126-33.49-29.126-56.915c0-24.548,12.603-46.137,31.688-58.683
	c2.346-1.19,4.624-2.505,6.8-3.944c9.52-4.817,20.275-7.537,31.676-7.537C352.2,209.249,374.923,223.427,387.038,244.496z"/>
<path style="fill:#E54728;" d="M334.693,343.253c-3.706-2.675-7.695-4.998-11.9-6.925c-17.646-12.738-29.126-33.49-29.126-56.915
	c0-24.548,12.603-46.137,31.688-58.683c2.346-1.19,4.624-2.505,6.8-3.944c4.083-2.066,8.406-3.718,12.897-4.964
	c-6.009-1.675-12.341-2.573-18.883-2.573c-11.401,0-22.156,2.72-31.676,7.537c-2.176,1.439-4.454,2.754-6.8,3.944
	c-19.085,12.546-31.688,34.136-31.688,58.683c0,23.426,11.481,44.177,29.126,56.915c4.205,1.927,8.194,4.25,11.9,6.925
	c8.874,4.069,18.745,6.324,29.138,6.324c6.522,0,12.838-0.89,18.831-2.557C341.443,346.031,337.998,344.768,334.693,343.253z"/>
<path style="fill:#F7B239;" d="M316.874,123.185c5.916,10.279,9.293,22.213,9.293,34.929c0,24.536-12.591,46.126-31.676,58.672
	c-2.346,1.19-4.624,2.505-6.8,3.944c-9.52,4.828-20.286,7.548-31.688,7.548c-11.401,0-22.156-2.72-31.676-7.537
	c-2.187-1.439-4.454-2.754-6.8-3.944c-19.085-12.546-31.688-34.136-31.688-58.683c0-12.716,3.377-24.65,9.293-34.929
	c12.104-21.057,34.827-35.235,60.871-35.235C282.036,87.95,304.759,102.128,316.874,123.185z M292.893,159.429
	c0-14.54-11.798-26.338-26.338-26.338s-26.327,11.798-26.327,26.338c0,14.541,11.787,26.327,26.327,26.327
	S292.893,173.969,292.893,159.429z"/>
<g>
	<path style="fill:#E09B2D;" d="M264.529,221.954c-3.706-2.675-7.695-4.998-11.9-6.925c-17.646-12.739-29.126-33.49-29.126-56.915
		c0-24.548,12.603-46.137,31.688-58.683c2.346-1.19,4.624-2.505,6.8-3.944c4.083-2.066,8.406-3.718,12.897-4.964
		c-6.009-1.675-12.341-2.573-18.883-2.573c-11.401,0-22.156,2.72-31.676,7.537c-2.176,1.439-4.454,2.754-6.8,3.944
		c-19.085,12.546-31.688,34.136-31.688,58.683c0,23.426,11.481,44.177,29.126,56.915c4.205,1.927,8.194,4.25,11.9,6.925
		c8.874,4.069,18.745,6.324,29.138,6.324c6.522,0,12.838-0.89,18.831-2.557C271.279,224.732,267.835,223.469,264.529,221.954z"/>
	<path style="fill:#E09B2D;" d="M400.083,338.947c-1.485,0.918-3.015,1.757-4.567,2.55c-19.085,12.546-31.688,34.136-31.688,58.683
		c0,0.215,0,0.431,0.011,0.646l-21.533-45.412c0.567-0.68,1.133-1.349,1.745-2.006c0.363-0.419,0.748-0.839,1.133-1.258
		c0.102-0.102,0.204-0.215,0.306-0.317c0.374-0.397,0.771-0.793,1.156-1.19c0.442-0.442,0.895-0.884,1.349-1.315
		c0.397-0.385,0.793-0.759,1.201-1.122c0.136-0.125,0.283-0.249,0.419-0.374c0.261-0.238,0.521-0.465,0.793-0.703
		c0.408-0.34,0.816-0.691,1.224-1.031c0.136-0.113,0.272-0.227,0.408-0.329c0.329-0.283,0.669-0.544,1.009-0.805
		c0.317-0.261,0.646-0.51,0.975-0.748c0.238-0.193,0.476-0.374,0.714-0.544c0.204-0.147,0.408-0.306,0.612-0.442
		c0.816-0.601,1.655-1.179,2.505-1.734c2.346-1.19,4.624-2.505,6.8-3.944c0.839-0.419,1.677-0.827,2.539-1.213
		c0.544-0.249,1.099-0.487,1.643-0.725c1.655-0.714,3.355-1.36,5.077-1.938c0.578-0.193,1.156-0.374,1.734-0.555
		c0.476-0.147,0.952-0.295,1.428-0.419c0.136-0.045,0.272-0.091,0.397-0.125c0.567-0.147,1.133-0.306,1.7-0.442
		c0.499-0.125,0.986-0.249,1.485-0.351c0.204-0.057,0.397-0.102,0.589-0.136c0.329-0.079,0.657-0.147,0.997-0.215
		c0.374-0.079,0.737-0.147,1.111-0.215c0.272-0.057,0.544-0.102,0.816-0.147c0.544-0.102,1.088-0.193,1.632-0.261
		c0.023-0.011,0.034-0.011,0.057-0.011c0.533-0.091,1.077-0.159,1.621-0.227c0.533-0.068,1.065-0.125,1.598-0.181
		c0.363-0.034,0.725-0.068,1.088-0.102c1.247-0.113,2.505-0.193,3.774-0.227c0.635-0.023,1.281-0.034,1.915-0.034L400.083,338.947z"
		/>
</g>
<g>
	<path style="fill:#333333;" d="M507.353,430.82L285.693,46.895c-6.198-10.735-17.298-17.143-29.692-17.143
		c-12.395,0-23.495,6.409-29.693,17.143L4.648,430.82c-6.198,10.735-6.197,23.552,0,34.286
		c6.197,10.734,17.298,17.143,29.692,17.143h443.321c12.395,0,23.495-6.409,29.692-17.143
		C513.551,454.372,513.551,441.554,507.353,430.82z M451.533,427.615l-41.508-87.544c27.43,6.247,47.969,30.818,47.969,60.112
		C457.993,410.034,455.659,419.347,451.533,427.615z M334.665,400.183c0-9.852,2.335-19.163,6.46-27.432l41.508,87.544
		C355.204,454.048,334.665,429.477,334.665,400.183z M317.665,400.183c0,34.002-27.662,61.664-61.665,61.664
		c-34.002,0-61.664-27.662-61.664-61.664s27.662-61.664,61.664-61.664c9.009,0,17.563,1.958,25.286,5.444
		c3.508,2.446,7.216,4.623,11.107,6.48C307.701,361.675,317.665,379.784,317.665,400.183z M185.833,364.642
		c-1.165-2.292-2.448-4.513-3.825-6.668c1.269,0.061,2.543,0.103,3.827,0.103c1.278,0,2.549-0.039,3.812-0.1
		C188.274,360.131,186.998,362.353,185.833,364.642z M124.173,279.412c0-34.002,27.662-61.664,61.664-61.664
		c2.47,0,4.899,0.163,7.294,0.447l-68.511,68.513C124.335,284.313,124.173,281.882,124.173,279.412z M241.727,253.401
		l-81.902,81.902c-13.127-6.135-23.746-16.754-29.88-29.881l81.9-81.9C224.974,229.655,235.593,240.274,241.727,253.401z
		 M247.054,272.116c0.283,2.395,0.447,4.827,0.447,7.296c0,34.002-27.662,61.664-61.664,61.664c-2.471,0-4.902-0.163-7.296-0.447
		L247.054,272.116z M256.012,314.933c1.167,2.296,2.443,4.526,3.823,6.687c-1.27-0.061-2.548-0.1-3.834-0.1
		c-1.283,0-2.557,0.037-3.825,0.099C253.556,319.456,254.843,317.231,256.012,314.933z M255.996,243.877
		c-1.265-2.487-2.658-4.896-4.169-7.223c1.384,0.073,2.773,0.12,4.175,0.12c1.401,0,2.789-0.05,4.172-0.122
		C258.659,238.98,257.261,241.388,255.996,243.877z M326.161,364.645c-1.164-2.288-2.433-4.513-3.807-6.665
		c1.264,0.061,2.533,0.096,3.811,0.096c1.277,0,2.548-0.034,3.81-0.094C328.601,360.135,327.325,362.357,326.161,364.645z
		 M326.165,341.077c-34.002,0-61.664-27.662-61.664-61.664s27.662-61.664,61.664-61.664s61.664,27.662,61.664,61.664
		S360.167,341.077,326.165,341.077z M326.165,200.748c-1.401,0-2.789,0.05-4.171,0.122c6.802-10.463,11.178-22.636,12.345-35.72
		l24.732,42.838C349.053,203.355,337.91,200.748,326.165,200.748z M317.665,158.111c0,34.002-27.662,61.664-61.665,61.664
		c-34.002,0-61.664-27.662-61.664-61.664S221.999,96.447,256,96.447C290.003,96.447,317.665,124.109,317.665,158.111z
		 M190.02,200.871c-1.386-0.073-2.779-0.121-4.183-0.121c-11.746,0-22.887,2.605-32.907,7.241l24.723-42.821
		C178.821,178.249,183.217,190.41,190.02,200.871z M119.497,321.619c-1.268-0.061-2.541-0.1-3.824-0.1
		c-11.515,0-22.449,2.507-32.314,6.972l24.152-41.832C108.682,299.438,112.93,311.336,119.497,321.619z M115.673,338.519
		c34.002,0,61.664,27.662,61.664,61.664s-27.662,61.664-61.664,61.664s-61.664-27.662-61.664-61.664S81.671,338.519,115.673,338.519
		z M185.838,435.697c6.053,11.909,15.04,22.082,26.016,29.552h-52.025C170.802,457.779,179.786,447.605,185.838,435.697z
		 M326.16,435.705c6.051,11.904,15.039,22.075,26.01,29.545h-52.021C311.122,457.781,320.108,447.61,326.16,435.705z
		 M402.053,461.572l-49.617-104.645c9.931-10.076,23.292-16.756,38.171-18.132l49.617,104.645
		C430.291,453.516,416.931,460.196,402.053,461.572z M396.329,321.52c-1.281,0-2.552,0.041-3.818,0.102
		c6.566-10.285,10.806-22.187,11.978-34.967l24.154,41.838C418.777,324.026,407.844,321.52,396.329,321.52z M241.03,55.394
		c3.125-5.412,8.721-8.643,14.97-8.643s11.845,3.231,14.97,8.643l18.114,31.374c-10.065-4.686-21.27-7.32-33.084-7.32
		s-23.019,2.634-33.083,7.32L241.03,55.394z M19.371,456.607c-3.125-5.412-3.125-11.875,0-17.287l18.035-31.238
		c2.379,23.739,15.354,44.396,34.113,57.166H34.341C28.092,465.25,22.496,462.018,19.371,456.607z M492.631,456.606
		c-3.125,5.412-8.721,8.643-14.97,8.643h-37.176c18.759-12.77,31.734-33.427,34.113-57.166l18.035,31.237
		C495.754,444.732,495.754,451.194,492.631,456.606z"/>
	<path style="fill:#333333;" d="M96.875,424.238c19.205,0,34.829-15.625,34.829-34.829c0-19.205-15.625-34.83-34.829-34.83
		c-19.205,0-34.83,15.625-34.83,34.83C62.045,408.613,77.67,424.238,96.875,424.238z M96.875,371.578
		c9.832,0,17.829,7.999,17.829,17.831c0,9.832-7.999,17.829-17.829,17.829c-9.832,0-17.831-7.999-17.831-17.829
		C79.045,379.576,87.044,371.578,96.875,371.578z"/>
	<path style="fill:#333333;" d="M261.046,363.985c-19.205,0-34.829,15.625-34.829,34.829c0,19.204,15.624,34.829,34.829,34.829
		s34.83-15.625,34.83-34.829C295.876,379.61,280.251,363.985,261.046,363.985z M261.046,416.645
		c-9.832,0-17.829-7.999-17.829-17.829s7.998-17.829,17.829-17.829c9.833,0,17.831,7.999,17.831,17.829
		S270.879,416.645,261.046,416.645z"/>
	<path style="fill:#333333;" d="M231.729,159.426c0,19.205,15.625,34.829,34.83,34.829s34.829-15.625,34.829-34.829
		c0-19.205-15.624-34.83-34.829-34.83S231.729,140.22,231.729,159.426z M266.56,141.596c9.832,0,17.829,7.999,17.829,17.831
		c0,9.832-7.999,17.829-17.829,17.829s-17.831-7.999-17.831-17.829C248.729,149.594,256.728,141.596,266.56,141.596z"/>
</g>
<g>
	<circle style="fill:#FFFFFF;" cx="290.674" cy="130.377" r="8.5"/>
	<circle style="fill:#FFFFFF;" cx="362.074" cy="259.372" r="8.5"/>
	<circle style="fill:#FFFFFF;" cx="214.175" cy="259.372" r="8.5"/>
	<circle style="fill:#FFFFFF;" cx="141.699" cy="369.87" r="8.5"/>
	<circle style="fill:#FFFFFF;" cx="281.086" cy="369.87" r="8.5"/>
	<circle style="fill:#FFFFFF;" cx="426.004" cy="369.87" r="8.5"/>
</g>
<g>
</g>
<g>
</g>
<g>
</g>
<g>
</g>
<g>
</g>
<g>
</g>
<g>
</g>
<g>
</g>
<g>
</g>
<g>
</g>
<g>
</g>
<g>
</g>
<g>
</g>
<g>
</g>
<g>
</g>
</svg>
