<?xml version="1.0" encoding="iso-8859-1"?>
<!-- Generator: Adobe Illustrator 19.0.0, SVG Export Plug-In . SVG Version: 6.00 Build 0)  -->
<svg version="1.1" id="Layer_1" xmlns="http://www.w3.org/2000/svg" xmlns:xlink="http://www.w3.org/1999/xlink" x="0px" y="0px"
	 viewBox="0 0 511.999 511.999" style="enable-background:new 0 0 511.999 511.999;" xml:space="preserve">
<path style="fill:#F7B239;" d="M356.848,199.322l-0.546,1.999h-56.668l-22.751-22.751c-5.763-5.763-15.105-5.763-20.869,0
	l-22.751,22.751l-8.424-6.867l7.739-28.677c2.463-9.098,6.588-17.592,12.084-25.075c3.195-4.346,6.856-8.354,10.922-11.945
	l0.012,0.012l37.508,10.121l62.467,16.872h0.012C360.253,169.75,360.729,184.902,356.848,199.322z"/>
<path style="fill:#E09B2D;" d="M293.104,138.889l-13.386,42.516l-2.835-2.835c-5.763-5.763-15.105-5.763-20.869,0l-22.751,22.751
	l-8.424-6.867l7.739-28.677c2.463-9.098,6.588-17.592,12.084-25.075c3.195-4.346,6.856-8.354,10.922-11.945l0.012,0.012
	L293.104,138.889z"/>
<polygon style="fill:#CCCCCC;" points="385.409,201.32 348.924,503.289 163.069,503.289 126.584,201.32 330.96,201.32 
	356.302,201.32 "/>
<polygon style="fill:#B3B3B3;" points="126.584,201.32 163.069,503.289 227.374,503.289 213.01,201.32 "/>
<polygon style="fill:#F95428;" points="330.96,201.32 199.775,290.431 126.584,201.32 165.87,201.32 222.991,201.32 233.263,201.32 
	299.634,201.32 "/>
<g>
	<path style="fill:#2BA5F7;" d="M299.634,201.32h-66.371l22.751-22.751c5.763-5.763,15.105-5.763,20.869,0L299.634,201.32z"/>
	<path style="fill:#2BA5F7;" d="M206.433,179.429l18.405,15.024l-1.848,6.867H165.87l20.776-20.869
		C191.99,175.072,200.554,174.63,206.433,179.429z"/>
</g>
<path style="fill:#9AD14B;" d="M355.582,155.76h-0.012l-99.975-26.992l-0.012-0.012c2.928-2.58,6.077-4.938,9.412-7.053
	c15.93-10.144,27.48-25.865,32.395-44.085l8.482-31.408l47.791,12.898l-8.482,31.408c-1.743,6.472-2.603,13.095-2.603,19.684
	c0,11.98,2.858,23.901,8.436,34.719C352.828,148.428,354.35,152.054,355.582,155.76z"/>
<path style="fill:#B27214;" d="M356,17.441c4.59,1.232,7.309,5.961,6.065,10.539l-8.401,31.129l-47.791-12.898l8.401-31.129
	c1.232-4.59,5.961-7.297,10.539-6.065L356,17.441z"/>
<polygon style="fill:#E54728;" points="126.584,201.32 191.56,200.943 199.775,290.431 "/>
<path style="fill:#FFFFFF;" d="M323.186,482.955c-0.35,0-0.702-0.021-1.056-0.064c-4.778-0.578-8.184-4.919-7.607-9.697
	l25.695-212.663c0.578-4.779,4.935-8.182,9.698-7.606c4.778,0.577,8.184,4.919,7.607,9.697l-25.695,212.663
	C331.291,479.708,327.531,482.955,323.186,482.955z"/>
<path style="fill:#333333;" d="M391.934,195.542c-1.655-1.866-4.029-2.934-6.521-2.934h-18.266
	c2.756-17.626-0.114-35.68-8.385-51.69c-4.887-9.469-7.47-20.091-7.47-30.717c0-5.87,0.777-11.731,2.31-17.418l16.879-62.529
	c1.206-4.463,0.603-9.129-1.702-13.141c-2.305-4.015-6.038-6.888-10.504-8.092l-31.182-8.415c-4.464-1.206-9.129-0.602-13.142,1.702
	c-4.013,2.306-6.888,6.038-8.091,10.503l-16.88,62.535c-4.359,16.159-14.538,30.01-28.657,38.995
	c-8.841,5.616-16.474,12.745-22.687,21.196c-6.202,8.453-10.733,17.863-13.466,27.971l-4.233,15.686l-7.988-6.522
	c-9.393-7.669-22.927-6.972-31.484,1.624l-18.221,18.309h-35.656c-2.494,0-4.866,1.068-6.521,2.934s-2.43,4.35-2.131,6.826
	l36.483,301.963c0.529,4.377,4.243,7.669,8.652,7.669h185.858c4.408,0,8.123-3.292,8.652-7.669l36.483-301.963
	C394.362,199.892,393.587,197.408,391.934,195.542z M322.659,17.463l30.965,8.356l-6.1,22.6l-30.965-8.358L322.659,17.463z
	 M305.808,79.888l6.208-22.999l30.965,8.358l-6.208,22.999c-1.932,7.169-2.912,14.556-2.912,21.956
	c0,11.087,2.236,22.165,6.496,32.422l-65.002-17.544C290.205,113.829,300.918,98.017,305.808,79.888z M240.996,168.055
	c2.168-8.021,5.766-15.491,10.686-22.198c1.937-2.635,4.055-5.103,6.333-7.405l90.598,24.452c2.503,9.672,2.801,19.807,0.839,29.704
	h-46.206l-20.199-20.201c-4.433-4.434-10.329-6.875-16.599-6.875s-12.166,2.441-16.599,6.875l-13.733,13.734L240.996,168.055z
	 M302.619,210.037l-101.157,68.71l-56.44-68.71H302.619z M254.298,192.608l7.876-7.876c1.141-1.141,2.659-1.77,4.274-1.77
	s3.131,0.629,4.274,1.77l7.876,7.876H254.298z M192.817,186.594c2.203-2.215,5.689-2.392,8.108-0.418l7.879,6.433h-21.971
	L192.817,186.594z M341.203,494.571H170.795l-31.971-264.62l54.22,66.007c1.715,2.087,4.211,3.184,6.74,3.184
	c1.691,0,3.398-0.492,4.891-1.506l128.964-87.597h41.942L341.203,494.571z"/>
<g>
	<circle style="fill:#FFFFFF;" cx="352.641" cy="230.369" r="8.715"/>
	<circle style="fill:#FFFFFF;" cx="332.841" cy="178.372" r="8.715"/>
	<circle style="fill:#FFFFFF;" cx="317.05" cy="119.031" r="8.715"/>
</g>
<g>
</g>
<g>
</g>
<g>
</g>
<g>
</g>
<g>
</g>
<g>
</g>
<g>
</g>
<g>
</g>
<g>
</g>
<g>
</g>
<g>
</g>
<g>
</g>
<g>
</g>
<g>
</g>
<g>
</g>
</svg>
