<svg height="511pt" viewBox="0 0 511.97446 511" width="511pt" xmlns="http://www.w3.org/2000/svg"><path d="m503.457031 205.226562c0 108.394532-87.871093 196.265626-196.265625 196.265626-4.351562 0-8.617187-.167969-12.800781-.425782-103.148437-6.8125-183.332031-92.464844-183.332031-195.839844s80.183594-189.027343 183.332031-195.839843c4.183594-.257813 8.449219-.425781 12.800781-.425781 108.394532 0 196.265625 87.871093 196.265625 196.265624zm0 0" fill="#37474f"/><path d="m477.859375 205.226562c0-108.160156-82.140625-195.839843-183.46875-195.839843-101.324219 0-183.464844 87.679687-183.464844 195.839843 0 108.160157 82.140625 195.839844 183.464844 195.839844 101.328125 0 183.46875-87.679687 183.46875-195.839844zm0 0" fill="#607d8b"/><path d="m401.058594 307.625c0 108.398438-87.871094 196.269531-196.265625 196.269531-4.351563 0-8.621094-.171875-12.800781-.425781-103.148438-6.816406-183.332032-92.46875-183.332032-195.84375 0-103.371094 80.183594-189.027344 183.332032-195.839844 4.179687-.253906 8.449218-.425781 12.800781-.425781 108.394531 0 196.265625 87.871094 196.265625 196.265625zm0 0" fill="#9e9e9e"/><path d="m375.457031 307.625c0-108.15625-82.140625-195.839844-183.464843-195.839844-101.328126 0-183.46875 87.683594-183.46875 195.839844 0 108.160156 82.140624 195.84375 183.46875 195.84375 101.324218 0 183.464843-87.683594 183.464843-195.84375zm0 0" fill="#f5f5f5"/><path d="m330.914062 457.898438c-17.519531 14.785156-37.511718 26.367187-59.050781 34.21875l-8.449219-14.675782-22.101562-38.316406c19.867188-5.503906 38.222656-15.453125 53.675781-29.097656 1.792969-1.621094 3.667969-3.328125 5.375-5.035156zm0 0" fill="#c52828"/><path d="m168.269531 439.125-30.550781 52.992188c-21.539062-7.851563-41.527344-19.433594-59.050781-34.21875l30.550781-52.90625c16.453125 16.222656 36.777344 27.972656 59.050781 34.132812zm0 0" fill="#f44335"/><path d="m68.257812 307.625c.003907 11.519531 1.46875 22.988281 4.351563 34.136719h-61.011719c-4.097656-22.574219-4.097656-45.695313 0-68.269531h61.011719c-2.882813 11.148437-4.347656 22.617187-4.351563 34.132812zm0 0" fill="#f44335"/><path d="m168.269531 176.128906c-21.46875 5.921875-41.136719 17.0625-57.257812 32.425782v.085937c-.597657.511719-1.195313 1.023437-1.792969 1.621094l-30.550781-52.90625c14.539062-12.285157 30.8125-22.351563 48.300781-29.867188 3.496094-1.621093 7.082031-2.988281 10.75-4.351562zm0 0" fill="#f44335"/><path d="m401.058594 307.625c.015625 11.449219-1.011719 22.875-3.074219 34.136719h-61.011719c5.804688-22.386719 5.804688-45.882813 0-68.269531h61.011719c1.902344 10.132812 2.902344 20.414062 2.988281 30.722656.085938 1.109375.085938 2.300781.085938 3.410156zm0 0" fill="#c52828"/><path d="m270.667969 73.726562c-22.269531 6.160157-42.597657 17.910157-59.050781 34.136719l-30.546876-52.910156c17.519532-14.785156 37.507813-26.367187 59.050782-34.21875zm0 0" fill="#f5f5f5"/><g fill="#9e9e9e"><path d="m433.3125 54.953125-30.546875 52.910156c-1.707031-1.707031-3.585937-3.414062-5.375-5.035156-15.453125-13.644531-33.808594-23.597656-53.675781-29.101563l22.101562-38.3125 8.445313-14.679687c21.542969 7.851563 41.53125 19.433594 59.050781 34.21875zm0 0"/><path d="m433.3125 355.5c-14.535156 12.285156-30.8125 22.347656-48.296875 29.867188 6.035156-13.972657 10.390625-28.609376 12.96875-43.605469 2.0625-11.261719 3.089844-22.6875 3.074219-34.136719 0-1.109375 0-2.300781-.085938-3.410156.597656-.511719 1.195313-1.023438 1.792969-1.621094zm0 0"/><path d="m503.457031 205.226562c.019531 11.449219-1.011719 22.871094-3.070312 34.132813h-61.015625c5.804687-22.386719 5.804687-45.878906 0-68.265625h61.015625c2.058593 11.261719 3.089843 22.683594 3.070312 34.132812zm0 0"/></g><path d="m418.125 66.988281-20.734375 35.839844c-15.453125-13.644531-33.808594-23.597656-53.675781-29.101563l22.101562-38.3125c18.984375 7.714844 36.636719 18.371094 52.308594 31.574219zm0 0" fill="#f5f5f5"/><path d="m477.859375 205.226562c.015625 11.449219-1.011719 22.871094-3.074219 34.132813h-35.414062c5.804687-22.386719 5.804687-45.878906 0-68.265625h35.414062c2.0625 11.261719 3.089844 22.683594 3.074219 34.132812zm0 0" fill="#f5f5f5"/><path d="m409.589844 205.226562c.050781 18.726563-5.089844 37.097657-14.847656 53.078126-16.351563-62.460938-62.253907-112.957032-122.878907-135.167969-5.816406-2.128907-11.742187-3.953125-17.75-5.460938 15.980469-9.757812 34.355469-14.898437 53.078125-14.847656 56.535156.046875 102.351563 45.863281 102.398438 102.398437zm0 0" fill="#f5f5f5"/><path d="m330.914062 157.355469-30.550781 52.90625c-1.707031-1.707031-3.582031-3.414063-5.375-5.035157-15.453125-13.644531-33.808593-23.59375-53.675781-29.097656l22.101562-38.316406 8.449219-14.675781c21.539063 7.851562 41.53125 19.433593 59.050781 34.21875zm0 0" fill="#c52828"/><path d="m315.726562 445.867188c-15.675781 13.203124-33.328124 23.859374-52.3125 31.574218l-22.101562-38.316406c19.867188-5.503906 38.222656-15.453125 53.675781-29.097656zm0 0" fill="#f44335"/><path d="m375.457031 307.625c.019531 11.449219-1.011719 22.875-3.070312 34.136719h-35.414063c5.804688-22.386719 5.804688-45.882813 0-68.269531h35.414063c1.902343 10.132812 2.902343 20.414062 2.984375 30.722656.085937 1.109375.085937 2.300781.085937 3.410156zm0 0" fill="#f44335"/><path d="m315.726562 169.386719-20.738281 35.839843c-15.453125-13.644531-33.808593-23.59375-53.675781-29.097656l22.101562-38.316406c18.984376 7.714844 36.636719 18.371094 52.3125 31.574219zm0 0" fill="#f44335"/><path d="m341.324219 307.625c-.105469 61.292969-40.976563 115.027344-100.011719 131.5-11.878906 3.371094-24.171875 5.066406-36.519531 5.035156-4.277344.03125-8.550781-.195312-12.800781-.683594-8.03125-.664062-15.976563-2.125-23.722657-4.351562-47.019531-12.996094-83.511719-50.125-95.699219-97.359375s1.789063-97.378906 36.648438-131.503906c.597656-.597657 1.195312-1.109375 1.792969-1.621094v-.085937c16.121093-15.363282 35.789062-26.503907 57.257812-32.425782 7.746094-2.230468 15.691407-3.6875 23.722657-4.351562 4.25-.488282 8.523437-.714844 12.800781-.683594 12.347656-.03125 24.640625 1.660156 36.519531 5.035156 59.085938 16.402344 99.984375 70.179688 100.011719 131.496094zm0 0" fill="#f5f5f5"/><path d="m315.726562 307.625c-.109374 61.292969-40.976562 115.027344-100.011718 131.5-7.746094 2.226562-15.691406 3.6875-23.722656 4.351562-8.03125-.664062-15.976563-2.125-23.722657-4.351562-47.019531-12.996094-83.511719-50.125-95.699219-97.359375s1.789063-97.378906 36.648438-131.503906c.597656-.597657 1.195312-1.109375 1.792969-1.621094v-.085937c16.121093-15.363282 35.789062-26.503907 57.257812-32.425782 7.746094-2.230468 15.691407-3.6875 23.722657-4.351562 8.03125.664062 15.976562 2.121094 23.722656 4.351562 59.082031 16.402344 99.984375 70.179688 100.011718 131.496094zm0 0" fill="#f5f5f5"/><path d="m307.191406 307.625c-.046875 56.535156-45.867187 102.355469-102.398437 102.402344-2.902344 0-5.71875-.085938-8.535157-.34375-53.136718-4.347656-94.046874-48.742188-94.046874-102.058594 0-53.3125 40.910156-97.707031 94.046874-102.058594 2.816407-.253906 5.632813-.339844 8.535157-.339844 56.53125.046876 102.351562 45.867188 102.398437 102.398438zm0 0" fill="#f44335"/><path d="m290.125 307.625c0-56.363281-42.027344-102.058594-93.867188-102.058594-51.839843 0-93.867187 45.695313-93.867187 102.058594 0 56.367188 42.027344 102.058594 93.867187 102.058594 51.839844 0 93.867188-45.691406 93.867188-102.058594zm0 0" fill="#f44335"/><path d="m255.992188 286.976562c.070312 7.890626-2.683594 15.550782-7.765626 21.589844l-43.433593 50.261719-43.519531-50.261719c-10.242188-12.605468-10.242188-30.660156 0-43.265625 4.65625-5.5 11.476562-8.707031 18.6875-8.789062 7.1875.066406 13.984374 3.277343 18.601562 8.789062l6.230469 7.253907 6.226562-7.253907c4.535157-5.625 11.375-8.898437 18.605469-8.898437 7.226562 0 14.066406 3.273437 18.601562 8.898437 5.09375 6.066407 7.851563 13.753907 7.765626 21.675781zm0 0" fill="#f5f5f5"/><path d="m443.726562 205.226562c-.011718 36.640626-14.773437 71.738282-40.960937 97.367188-.597656.597656-1.195313 1.109375-1.792969 1.621094-.058594-9.558594-.945312-19.097656-2.644531-28.503906-.074219-.746094-.1875-1.484376-.34375-2.21875-.851563-5.117188-1.960937-10.152344-3.242187-15.101563v-.085937c9.757812-15.980469 14.898437-34.351563 14.847656-53.078126-.046875-56.535156-45.863282-102.351562-102.398438-102.398437-4.226562-.015625-8.445312.269531-12.628906.851563-14.34375 1.660156-28.148438 6.4375-40.449219 13.996093-6.121093-1.632812-12.332031-2.914062-18.601562-3.839843-9.035157-1.449219-18.160157-2.25-27.308594-2.390626 1.027344-1.195312 2.21875-2.390624 3.414063-3.582031 16.453124-16.226562 36.78125-27.976562 59.050781-34.136719 7.746093-2.226562 15.691406-3.683593 23.722656-4.351562 4.25-.484375 8.523437-.714844 12.800781-.679688 12.347656-.035156 24.644532 1.660157 36.523438 5.03125 59.082031 16.402344 99.984375 70.183594 100.011718 131.5zm0 0" fill="#607d8b"/><path d="m265.378906 379.308594c-8.359375 7.074218-17.886718 12.632812-28.160156 16.425781-3.890625 1.421875-6.195312 5.433594-5.464844 9.511719.726563 4.074218 4.277344 7.042968 8.417969 7.035156 1.011719 0 2.011719-.183594 2.960937-.539062 12.125-4.480469 23.371094-11.046876 33.226563-19.40625 3.300781-3.105469 3.601563-8.246094.679687-11.714844-2.921874-3.464844-8.042968-4.042969-11.660156-1.3125zm0 0"/><path d="m169.601562 219.996094c1.003907 0 2-.179688 2.941407-.527344 10.269531-3.769531 21.121093-5.699219 32.0625-5.707031 4.710937 0 8.53125-3.820313 8.53125-8.535157 0-4.710937-3.820313-8.53125-8.53125-8.53125-12.9375.011719-25.769531 2.300782-37.914063 6.757813-3.886718 1.421875-6.191406 5.429687-5.46875 9.507813.726563 4.074218 4.273438 7.042968 8.410156 7.035156zm0 0"/><path d="m307.148438 316.6875c-4.640626-.796875-9.050782 2.316406-9.855469 6.957031-1.863281 10.78125-5.617188 21.144531-11.09375 30.617188-1.523438 2.644531-1.523438 5.898437.003906 8.539062 1.527344 2.644531 4.347656 4.269531 7.398437 4.269531 3.050782-.003906 5.871094-1.632812 7.394532-4.277343 6.457031-11.210938 10.890625-23.472657 13.089844-36.222657.390624-2.230468-.117188-4.523437-1.421876-6.378906-1.300781-1.851562-3.285156-3.113281-5.515624-3.503906zm0 0"/><path d="m297.199219 291.0625c.730469 4.0625 4.261719 7.019531 8.386719 7.023438.511718 0 1.019531-.042969 1.519531-.128907 2.230469-.398437 4.207031-1.664062 5.5-3.523437s1.796875-4.152344 1.394531-6.382813c-2.273438-12.734375-6.78125-24.96875-13.3125-36.136719-1.476562-2.75-4.335938-4.46875-7.457031-4.492187-3.117188-.019531-6 1.664063-7.515625 4.390625s-1.421875 6.0625.246094 8.703125c5.515624 9.441406 9.320312 19.78125 11.238281 30.546875zm0 0"/><path d="m112.351562 324.003906c-1.882812-10.78125-1.882812-21.808594 0-32.589844.519532-3.003906-.597656-6.058593-2.9375-8.015624-2.34375-1.953126-5.546874-2.511719-8.410156-1.464844-2.863281 1.050781-4.949218 3.546875-5.472656 6.554687-1.105469 6.320313-1.664062 12.722657-1.671875 19.136719 0 6.488281.570313 12.960938 1.707031 19.347656.71875 4.074219 4.257813 7.042969 8.394532 7.046875.5 0 .996093-.042969 1.484374-.128906 4.636719-.824219 7.726563-5.25 6.90625-9.886719zm0 0"/><path d="m111.777344 263.945312c4.082031 2.355469 9.300781.957032 11.65625-3.125 5.472656-9.484374 12.558594-17.9375 20.941406-24.984374 3.535156-3.054688 3.953125-8.382813.941406-11.953126-3.007812-3.574218-8.332031-4.058593-11.941406-1.09375-9.898438 8.320313-18.273438 18.304688-24.746094 29.5-1.128906 1.960938-1.433594 4.292969-.839844 6.480469.589844 2.1875 2.023438 4.046875 3.988282 5.175781zm0 0"/><path d="m123.535156 354.558594c-2.367187-4.074219-7.589844-5.460938-11.667968-3.089844-4.074219 2.367188-5.460938 7.589844-3.09375 11.667969 6.480468 11.175781 14.851562 21.140625 24.746093 29.449219 3.609375 3.035156 8.996094 2.570312 12.027344-1.039063 3.035156-3.605469 2.574219-8.992187-1.035156-12.027344-8.390625-7.035156-15.488281-15.480469-20.976563-24.960937zm0 0"/><path d="m204.792969 401.492188c-10.941407.015624-21.796875-1.894532-32.078125-5.640626-2.871094-1.0625-6.089844-.511718-8.4375 1.453126-2.351563 1.960937-3.46875 5.027343-2.933594 8.042968.535156 3.011719 2.644531 5.507813 5.527344 6.539063 12.148437 4.429687 24.984375 6.6875 37.921875 6.671875h.417969c2.238281-.007813 4.382812-.914063 5.949218-2.519532 1.5625-1.605468 2.417969-3.773437 2.371094-6.011718-.09375-4.753906-3.984375-8.554688-8.738281-8.535156zm0 0"/><path d="m236.6875 219.339844c10.289062 3.726562 19.84375 9.234375 28.230469 16.265625 3.621093 2.945312 8.933593 2.433593 11.929687-1.144531 2.992188-3.582032 2.554688-8.902344-.980468-11.945313-9.910157-8.308594-21.199219-14.8125-33.359376-19.21875-2.875-1.078125-6.105468-.527344-8.464843 1.441406-2.355469 1.964844-3.476563 5.050781-2.929688 8.070313.550781 3.023437 2.679688 5.515625 5.574219 6.53125zm0 0"/><path d="m204.792969 367.359375c2.476562.003906 4.835937-1.074219 6.457031-2.953125l43.460938-50.292969c13.078124-15.757812 13.078124-38.59375 0-54.351562-6.121094-7.457031-15.25-11.800781-24.902344-11.847657-9.648438-.050781-18.820313 4.203126-25.015625 11.601563-6.226563-7.367187-15.398438-11.597656-25.042969-11.542969-9.644531.050782-18.769531 4.378906-24.914062 11.816406-13.054688 15.75-13.054688 38.5625 0 54.316407l43.519531 50.34375c1.625 1.855469 3.972656 2.914062 6.4375 2.910156zm-37.085938-96.375c3.007813-3.671875 7.46875-5.855469 12.21875-5.972656 4.722657.078125 9.171875 2.234375 12.167969 5.886719l6.238281 7.210937c1.621094 1.875 3.976563 2.953125 6.457031 2.953125 2.476563 0 4.832032-1.078125 6.453126-2.953125l6.230468-7.210937c2.984375-3.648438 7.449219-5.769532 12.164063-5.769532 4.714843 0 9.179687 2.121094 12.164062 5.769532 7.542969 9.34375 7.542969 22.683593 0 32.027343l-37.007812 42.855469-37.011719-42.804688c-7.566406-9.3125-7.597656-22.644531-.074219-31.992187zm0 0"/><path d="m508.792969 169.644531c-12.789063-72.023437-62.929688-131.800781-131.628907-156.929687-45.222656-16.304688-94.722656-16.304688-139.945312 0-51.835938 18.992187-93.867188 58.015625-116.644531 108.304687-61.636719 27.84375-105.558594 84.324219-117.367188 150.921875-4.277343 23.5625-4.277343 47.707032 0 71.269532 12.789063 72.015624 62.921875 131.796874 131.609375 156.929687.242188.082031.496094.144531.734375.230469 100.554688 36.066406 211.9375-11.210938 255.847657-108.597656 17.105468-7.65625 33.058593-17.667969 47.394531-29.738282 36.902343-30.839844 61.691406-73.75 69.972656-121.121094 4.277344-23.566406 4.277344-47.707031 0-71.269531zm-58.871094 61.183594c3.117187-16.925781 3.117187-34.277344 0-51.203125h43.023437c1.265626 8.476562 1.925782 17.03125 1.980469 25.601562-.054687 8.570313-.71875 17.125-1.980469 25.601563zm-174.398437 250.546875-21.546876-37.367188c16.164063-5.835937 31.160157-14.503906 44.28125-25.601562l21.539063 37.300781c-13.507813 10.550781-28.402344 19.191407-44.273437 25.667969zm18.867187-82.441406c-32.5625 32.007812-79.734375 44.203125-123.734375 31.992187h-.050781c-55.296875-15.460937-93.53125-65.855469-93.53125-123.273437 0-57.417969 38.234375-107.8125 93.53125-123.273438h.050781c38.511719-10.652344 79.785156-2.714844 111.597656 21.464844 31.808594 24.179688 50.5 61.828125 50.539063 101.78125.003906 34.363281-13.839844 67.277344-38.402344 91.308594zm-160.332031 82.441406c-15.867188-6.480469-30.765625-15.117188-44.269532-25.667969l21.535157-37.300781c13.125 11.097656 28.117187 19.765625 44.28125 25.601562zm-115.019532-148.148438c-2.640624-16.964843-2.640624-34.234374 0-51.199218h43.023438c-3.117188 16.921875-3.117188 34.273437 0 51.199218zm217.417969-301.746093 21.546875 37.367187c-16.15625 5.835938-31.144531 14.503906-44.261718 25.597656l-21.554688-37.296874c13.503906-10.554688 28.402344-19.191407 44.269531-25.667969zm-31.664062 88.414062c18.425781.039063 36.75 2.796875 54.371093 8.183594l-22.039062 38.226563c-21.28125-4.863282-43.386719-4.863282-64.667969 0l-22.039062-38.226563c17.625-5.386719 35.945312-8.144531 54.375-8.183594zm182.613281 145.066407h-44.058594c-6.457031-20.859376-17.542968-39.988282-32.425781-55.960938l22.046875-38.1875c27.101562 25.273438 46.050781 58.050781 54.4375 94.148438zm-89.148438-68.113282c-13.121093-11.097656-28.117187-19.769531-44.28125-25.601562l21.546876-37.367188c15.867187 6.480469 30.765624 15.117188 44.273437 25.667969zm-164.199218-62.96875 21.546875 37.367188c-16.164063 5.835937-31.15625 14.503906-44.28125 25.601562l-21.535157-37.300781c13.503907-10.554687 28.402344-19.191406 44.269532-25.667969zm213.460937 148.148438h43.027344c2.636719 16.964844 2.636719 34.234375 0 51.199218h-43.027344c3.117188-16.925781 3.117188-34.277343 0-51.199218zm60.492188 1.902344c-.476563-4.003907-.910157-8.03125-1.628907-11.945313-.714843-4.132813-1.707031-8.183594-2.6875-12.253906 5.839844-10.203125 9.996094-21.277344 12.3125-32.804688.691407-3.027343-.320312-6.191406-2.636718-8.257812-2.316406-2.070313-5.574219-2.714844-8.503906-1.6875-2.933594 1.027343-5.074219 3.566406-5.59375 6.628906-.796876 3.847656-1.835938 7.644531-3.113282 11.363281-20.765625-54.769531-64.007812-98.011718-118.777344-118.78125 9.609376-3.21875 19.675782-4.851562 29.808594-4.832031h2.21875c2.277344.109375 4.496094-.71875 6.148438-2.289063 1.648437-1.566406 2.589844-3.742187 2.597656-6.023437.058594-2.261719-.78125-4.457031-2.339844-6.097656s-3.707031-2.597657-5.972656-2.65625h-2.652344c-12.050781-.019531-24.019531 1.933593-35.4375 5.785156-4.464844 1.511719-6.859375 6.351563-5.351562 10.8125.25.679687.589844 1.320313 1.007812 1.910156-12.660156-4.054687-25.6875-6.863281-38.894531-8.386719 13.167969-10.335937 28.246094-17.96875 44.371094-22.460937h.171875c38.511718-10.65625 79.792968-2.714844 111.605468 21.472656 31.808594 24.1875 50.5 61.839844 50.527344 101.800781 0 28.535157-9.570312 56.25-27.179687 78.703126zm-30.085938-252.449219c15.867188 6.476562 30.765625 15.117187 44.269531 25.667969l-21.539062 37.296874c-13.121094-11.097656-28.113281-19.765624-44.277344-25.597656zm111.878907 131.078125h-44.03125c-6.457032-20.855469-17.542969-39.988282-32.425782-55.960938l22.046875-38.1875c27.089844 25.28125 46.035157 58.058594 54.410157 94.148438zm-128.238282-136.875-22.042968 38.222656c-21.28125-4.863281-43.382813-4.863281-64.664063 0l-22.042969-38.222656c35.46875-10.636719 73.28125-10.636719 108.75 0zm-182.664062 42.589844 20.128906 34.851562c-18.601562.535156-37.046875 3.59375-54.828125 9.089844 9.3125-16.296875 21.007813-31.105469 34.699219-43.941406zm-102.316406 102.546874 22.050781 38.179688c-14.875 15.976562-25.953125 35.105469-32.402344 55.960938h-44.054687c8.375-36.089844 27.316406-68.867188 54.40625-94.140626zm-54.40625 179.472657h44.03125c6.457031 20.859375 17.539062 39.988281 32.425781 55.960937l-22.050781 38.1875c-27.089844-25.277344-46.03125-58.054687-54.40625-94.148437zm128.238281 136.875 22.03125-38.21875c21.273437 4.992187 43.410156 4.992187 64.683593 0l22.03125 38.21875c-35.46875 10.636719-73.277343 10.636719-108.746093 0zm182.613281-42.734375-22.085938-38.179688c14.878907-15.976562 25.953126-35.105468 32.402344-55.960937h44.058594c-8.375 36.089843-27.320312 68.867187-54.410156 94.140625zm73.386719-101.121094c.851562-4.617188 1.40625-9.34375 1.917969-14.070312l13.925781 24.105468c-6.992188 5.441406-14.363281 10.378906-22.058594 14.773438 2.582031-8.132813 4.640625-16.417969 6.171875-24.808594zm29.011719-1.277344-22.082032-38.179687c14.875-15.976563 25.949219-35.105469 32.398438-55.960938h44.058594c-8.375 36.089844-27.320313 68.863281-54.410157 94.140625zm0 0"/><path d="m347.589844 101.90625c-2.839844-1.121094-6.054688-.640625-8.445313 1.257812-2.386719 1.894532-3.578125 4.921876-3.128906 7.9375.449219 3.019532 2.472656 5.566407 5.308594 6.683594 10.183593 4 19.59375 9.746094 27.800781 16.980469 2.265625 2.175781 5.535156 2.929687 8.523438 1.972656 2.988281-.960937 5.207031-3.484375 5.777343-6.566406.574219-3.085937-.59375-6.238281-3.035156-8.203125-9.679687-8.554688-20.78125-15.34375-32.800781-20.0625zm0 0"/><path d="m392.910156 148.609375c-1.992187 1.082031-3.472656 2.910156-4.113281 5.085937-.636719 2.171876-.386719 4.511719.699219 6.5 5.28125 9.578126 8.820312 20.019532 10.460937 30.832032.632813 4.164062 4.210938 7.246094 8.421875 7.253906.433594 0 .867188-.03125 1.296875-.09375 4.660157-.710938 7.859375-5.0625 7.152344-9.71875-1.941406-12.796875-6.125-25.148438-12.355469-36.488281-2.269531-4.117188-7.4375-5.625-11.5625-3.371094zm0 0"/></svg>