<?xml version="1.0" encoding="iso-8859-1"?>
<!-- Generator: Adobe Illustrator 19.0.0, SVG Export Plug-In . SVG Version: 6.00 Build 0)  -->
<svg version="1.1" id="Layer_1" xmlns="http://www.w3.org/2000/svg" xmlns:xlink="http://www.w3.org/1999/xlink" x="0px" y="0px"
	 viewBox="0 0 512.001 512.001" style="enable-background:new 0 0 512.001 512.001;" xml:space="preserve">
<path style="fill:#2BA5F7;" d="M453.485,77.195L256,335.958L58.515,77.195h86.494h84.126H453.485z M276.352,258.206L390.85,108.182
	H232.374h-77.241h-33.994l114.509,150.024C245.888,271.639,266.101,271.639,276.352,258.206z"/>
<path style="fill:#E54728;" d="M390.85,108.182L276.352,258.206c-10.252,13.433-30.465,13.433-40.704,0L121.139,108.182h33.994
	c0.395,0.627,0.824,1.254,1.254,1.869c16.358,23.371,44.315,32.032,62.438,19.342c7.105-4.981,11.645-12.492,13.549-21.211H390.85z"
	/>
<polygon style="fill:#2BA5F7;" points="345.397,503.292 166.604,503.292 256,460.335 "/>
<g>
	<path style="fill:#9AD14B;" d="M155.133,108.182h77.241c-1.904,8.719-6.444,16.231-13.549,21.211
		c-18.123,12.69-46.08,4.029-62.438-19.342C155.957,109.436,155.528,108.809,155.133,108.182z"/>
	<path style="fill:#9AD14B;" d="M229.135,77.195h-84.126c-0.383-13.351,4.528-25.426,14.547-32.438
		c18.123-12.69,46.08-4.029,62.45,19.342C224.955,68.314,227.335,72.725,229.135,77.195z"/>
</g>
<path style="fill:none;stroke:#333333;stroke-width:15;stroke-linejoin:round;stroke-miterlimit:10;" d="M145.009,77.195
	c-0.383-13.351,4.528-25.426,14.547-32.438c18.123-12.69,46.08-4.029,62.45,19.342c2.949,4.214,5.329,8.626,7.129,13.096"/>
<path style="fill:#333333;" d="M460.407,82.478c2.009-2.633,2.351-6.176,0.884-9.144c-1.47-2.968-4.493-4.846-7.805-4.846H338.803
	l19.632-56.94c1.567-4.546-0.848-9.503-5.394-11.07c-4.548-1.567-9.503,0.848-11.07,5.394l-21.59,62.617H58.516
	c-3.312,0-6.336,1.878-7.805,4.846c-1.469,2.969-1.126,6.512,0.884,9.144L247.29,338.897v115.964l-84.457,40.584
	c-3.663,1.76-5.622,5.82-4.718,9.783c0.902,3.962,4.427,6.773,8.49,6.773h178.793c4.063,0,7.587-2.811,8.49-6.773
	c0.902-3.962-1.055-8.022-4.718-9.783l-84.464-40.586V338.906L460.407,82.478z M435.887,85.903L256,321.606L76.114,85.903H435.887z
	 M204.829,494.585L256,469.996l51.171,24.589L204.829,494.585L204.829,494.585z"/>
<g>
	<path style="fill:#11516D;" d="M398.655,104.321c-1.47-2.968-4.493-4.846-7.805-4.846H121.139c-3.312,0-6.337,1.878-7.805,4.846
		c-1.469,2.967-1.126,6.512,0.884,9.144l114.505,150.019c6.54,8.579,16.477,13.5,27.264,13.504c0.003,0,0.006,0,0.009,0
		c10.789,0,20.731-4.92,27.279-13.499l114.497-150.024C399.781,110.833,400.124,107.288,398.655,104.321z M219.242,116.89
		c-1.521,2.091-3.322,3.907-5.41,5.371c-6.511,4.558-15.148,5.505-24.31,2.667c-5.263-1.631-10.32-4.38-14.927-8.038H219.242z
		 M269.432,252.922c-3.225,4.227-8.122,6.65-13.435,6.65c-0.001,0-0.003,0-0.005,0c-5.308-0.001-10.199-2.424-13.422-6.65
		L138.738,116.89h11.86c8.89,11.928,20.802,20.656,33.77,24.672c5.199,1.61,10.343,2.408,15.314,2.408
		c8.82,0,17.093-2.511,24.143-7.447c6.859-4.809,11.966-11.519,15.027-19.634h64.84l-36.094,104.664
		c-1.569,4.546,0.846,9.503,5.393,11.071c0.94,0.324,1.898,0.478,2.839,0.478c3.612,0,6.988-2.265,8.231-5.871l38.053-110.342
		h51.137L269.432,252.922z"/>
	<circle style="fill:#11516D;" cx="333.206" cy="135.255" r="8.707"/>
	<circle style="fill:#11516D;" cx="249.65" cy="194.292" r="8.707"/>
	<circle style="fill:#11516D;" cx="249.65" cy="143.22" r="8.707"/>
	<circle style="fill:#11516D;" cx="201.433" cy="160.797" r="8.707"/>
</g>
<g>
	<path style="fill:#FFFFFF;" d="M312.975,227.876c-1.838,0-3.691-0.579-5.265-1.779c-3.828-2.912-4.57-8.375-1.658-12.202
		l75.379-99.068c2.912-3.827,8.375-4.571,12.202-1.657c3.828,2.912,4.57,8.375,1.658,12.202l-75.379,99.068
		C318.198,226.692,315.601,227.876,312.975,227.876z"/>
	<circle style="fill:#FFFFFF;" cx="406.779" cy="97.941" r="8.707"/>
</g>
<g>
</g>
<g>
</g>
<g>
</g>
<g>
</g>
<g>
</g>
<g>
</g>
<g>
</g>
<g>
</g>
<g>
</g>
<g>
</g>
<g>
</g>
<g>
</g>
<g>
</g>
<g>
</g>
<g>
</g>
</svg>
