<?xml version="1.0" encoding="iso-8859-1"?>
<!-- Generator: Adobe Illustrator 19.0.0, SVG Export Plug-In . SVG Version: 6.00 Build 0)  -->
<svg version="1.1" id="Layer_1" xmlns="http://www.w3.org/2000/svg" xmlns:xlink="http://www.w3.org/1999/xlink" x="0px" y="0px"
	 viewBox="0 0 512 512" style="enable-background:new 0 0 512 512;" xml:space="preserve">
<path style="fill:#2BA5F7;" d="M78.902,346.116c4.232,28.266,15.086,54.372,30.913,76.706h67.399h157.567h67.399
	c15.827-22.334,26.681-48.44,30.913-76.706h69.317v145.741H9.586V346.116H78.902z"/>
<rect x="9.586" y="346.11" style="fill:#2197D8;" width="25.249" height="145.741"/>
<path style="fill:#E09B2D;" d="M386.046,319.345c0,42.214-20.11,79.723-51.265,103.476H177.214
	c-31.155-23.753-51.265-61.263-51.265-103.476c0-71.835,58.22-130.055,130.042-130.055
	C327.826,189.29,386.046,247.51,386.046,319.345z"/>
<path style="fill:#F7B239;" d="M435.087,319.345c0,9.102-0.678,18.039-1.994,26.77c-4.232,28.266-15.085,54.372-30.913,76.706
	h-67.399c31.155-23.753,51.265-61.263,51.265-103.476c0-71.835-58.22-130.055-130.055-130.055
	c-71.822,0-130.042,58.22-130.042,130.055c0,42.214,20.11,79.723,51.265,103.476h-67.399c-15.827-22.334-26.681-48.44-30.913-76.706
	c-1.317-8.732-1.994-17.668-1.994-26.77c0-98.912,80.183-179.096,179.083-179.096C354.903,140.249,435.087,220.433,435.087,319.345z
	"/>
<path style="fill:#FFFFFF;" d="M410.797,328.933c-5.297,0-9.588-4.293-9.588-9.588c0-33.317-11.023-64.673-31.876-90.682
	c-20.253-25.259-48.62-43.246-79.877-50.645c-5.153-1.22-8.342-6.387-7.121-11.539c1.218-5.151,6.374-8.344,11.538-7.121
	c35.396,8.38,67.509,28.733,90.422,57.311c23.274,29.027,36.09,65.492,36.09,102.677
	C420.385,324.64,416.093,328.933,410.797,328.933z"/>
<g>
	<path style="fill:#B3B3B3;" d="M256,112.183c-5.295,0-9.588-4.293-9.588-9.588V20.139c0-5.295,4.293-9.588,9.588-9.588
		c5.297,0,9.588,4.293,9.588,9.588v82.455C265.588,107.89,261.297,112.183,256,112.183z"/>
	<path style="fill:#B3B3B3;" d="M324.073,125.606c-5.297,0-9.588-4.293-9.588-9.588V33.563c0-5.295,4.292-9.588,9.588-9.588
		c5.297,0,9.588,4.293,9.588,9.588v82.455C333.661,121.313,329.369,125.606,324.073,125.606z"/>
	<path style="fill:#B3B3B3;" d="M187.927,125.606c-5.295,0-9.588-4.293-9.588-9.588V33.563c0-5.295,4.293-9.588,9.588-9.588
		s9.588,4.293,9.588,9.588v82.455C197.515,121.313,193.223,125.606,187.927,125.606z"/>
</g>
<path style="fill:#333333;" d="M502.412,336.531h-58.536c0.511-5.685,0.8-11.413,0.8-17.182
	c0-104.04-84.644-188.684-188.684-188.684c-104.034,0-188.671,84.644-188.671,188.684c0,5.768,0.289,11.497,0.8,17.182H9.588
	c-5.295,0-9.588,4.293-9.588,9.588v145.741c0,5.295,4.293,9.588,9.588,9.588h492.823c5.297,0,9.588-4.293,9.588-9.588V346.119
	C512,340.824,507.708,336.531,502.412,336.531z M255.994,149.841c93.468,0,169.508,76.041,169.508,169.508
	c0,33.693-9.789,66.046-28.361,93.888h-37.734c23.256-25.477,36.231-58.566,36.231-93.888c0-76.999-62.643-139.643-139.643-139.643
	c-76.992,0-139.631,62.643-139.631,139.643c0,35.322,12.974,68.412,36.231,93.888h-37.736c-18.571-27.842-28.36-60.195-28.36-93.888
	C86.499,225.883,162.534,149.841,255.994,149.841z M246.404,313.296c-9.152-3.783-15.612-12.797-15.612-23.299
	s6.46-19.517,15.612-23.299V313.296z M265.581,336.282c9.159,3.78,15.626,12.797,15.626,23.305c0,10.507-6.466,19.524-15.626,23.305
	V336.282L265.581,336.282z M265.581,402.919c19.881-4.394,34.803-22.148,34.803-43.331s-14.921-38.937-34.803-43.331v-49.565
	c9.159,3.78,15.626,12.797,15.626,23.305c0,5.295,4.292,9.588,9.588,9.588c5.297,0,9.588-4.293,9.588-9.588
	c0-21.184-14.921-38.937-34.803-43.331V236.26c0-5.295-4.292-9.588-9.588-9.588c-5.295,0-9.588,4.293-9.588,9.588v10.409
	c-19.875,4.399-34.789,22.149-34.789,43.327s14.914,38.928,34.789,43.327v49.564c-9.152-3.783-15.612-12.797-15.612-23.299
	c0-5.295-4.293-9.588-9.588-9.588s-9.588,4.293-9.588,9.588c0,21.179,14.914,38.928,34.789,43.327v10.322h-65.875
	c-28.632-23.009-44.989-57.044-44.989-93.888c0-66.425,54.036-120.467,120.454-120.467c66.425,0,120.467,54.041,120.467,120.467
	c0,36.844-16.358,70.88-44.989,93.888h-65.891V402.919L265.581,402.919z M492.823,482.273H19.177V355.708h51.637
	c3.938,20.215,11.199,39.588,21.529,57.53H68.077c-5.295,0-9.588,4.293-9.588,9.588c0,5.295,4.293,9.588,9.588,9.588h375.847
	c5.297,0,9.588-4.293,9.588-9.588c0-5.295-4.292-9.588-9.588-9.588h-24.266c10.328-17.942,17.591-37.315,21.529-57.53h51.637
	V482.273z"/>
<g>
	<path style="fill:#FFFFFF;" d="M474.616,471.76c-5.297,0-9.588-4.293-9.588-9.588v-58.808c0-5.295,4.292-9.588,9.588-9.588
		c5.297,0,9.588,4.293,9.588,9.588v58.808C484.204,467.467,479.913,471.76,474.616,471.76z"/>
	<circle style="fill:#FFFFFF;" cx="474.619" cy="373.955" r="9.588"/>
	<circle style="fill:#FFFFFF;" cx="255.994" cy="164.534" r="9.588"/>
</g>
<g>
</g>
<g>
</g>
<g>
</g>
<g>
</g>
<g>
</g>
<g>
</g>
<g>
</g>
<g>
</g>
<g>
</g>
<g>
</g>
<g>
</g>
<g>
</g>
<g>
</g>
<g>
</g>
<g>
</g>
</svg>
