<?xml version="1.0" encoding="iso-8859-1"?>
<!-- Generator: Adobe Illustrator 19.0.0, SVG Export Plug-In . SVG Version: 6.00 Build 0)  -->
<svg version="1.1" id="Layer_1" xmlns="http://www.w3.org/2000/svg" xmlns:xlink="http://www.w3.org/1999/xlink" x="0px" y="0px"
	 viewBox="0 0 512 512" style="enable-background:new 0 0 512 512;" xml:space="preserve">
<path style="fill:#F95428;" d="M485.261,274.003c0,27.549-4.859,53.967-13.774,78.439l-0.058-0.023l-70.037-25.486
	c6.025-16.513,9.299-34.342,9.299-52.93H485.261z"/>
<path style="fill:#F7B239;" d="M471.487,195.576c8.915,24.46,13.774,50.879,13.774,78.427h-74.57
	c0-18.587-3.275-36.417-9.299-52.918l70.037-25.486L471.487,195.576z"/>
<g>
	<path style="fill:#2BA5F7;" d="M471.429,352.419l0.058,0.023c-9.229,25.369-22.817,48.653-39.866,68.93l-57.113-47.93
		c11.49-13.681,20.661-29.39,26.884-46.509L471.429,352.419z"/>
	<path style="fill:#2BA5F7;" d="M431.621,126.646c17.049,20.277,30.637,43.56,39.866,68.93l-0.058,0.023l-70.037,25.486
		c-6.223-17.13-15.394-32.839-26.884-46.52L431.621,126.646z"/>
</g>
<g>
	<path style="fill:#F7B239;" d="M374.508,373.441l57.113,47.93c-17.13,20.405-37.769,37.78-60.97,51.205l-0.023-0.035
		l-37.267-64.548c11.735-6.794,22.503-15.079,32.023-24.6C368.565,380.212,371.606,376.891,374.508,373.441z"/>
	<path style="fill:#F7B239;" d="M365.383,164.613c3.181,3.181,6.223,6.503,9.125,9.952c11.49,13.681,20.661,29.39,26.884,46.52
		c6.025,16.501,9.299,34.331,9.299,52.918h-91.561c0-17.433-7.062-33.212-18.494-44.644L365.383,164.613z"/>
</g>
<g>
	<path style="fill:#F95428;" d="M370.651,75.43c23.202,13.425,43.84,30.8,60.97,51.217l-57.113,47.919
		c-2.902-3.449-5.943-6.771-9.125-9.952c-9.521-9.521-20.289-17.806-32.023-24.6l37.267-64.548L370.651,75.43z"/>
	<path style="fill:#F95428;" d="M370.627,472.542l0.023,0.035c-22.759,13.168-47.989,22.538-74.826,27.234l-0.012-0.035
		l-12.947-73.405c18.109-3.17,35.135-9.486,50.494-18.377L370.627,472.542z"/>
</g>
<path style="fill:#564C89;" d="M374.508,373.441c-2.902,3.449-5.943,6.771-9.125,9.952l-64.746-64.746
	c11.432-11.432,18.494-27.211,18.494-44.644h91.56c0,18.587-3.275,36.417-9.299,52.93
	C395.169,344.052,385.998,359.76,374.508,373.441z"/>
<path style="fill:#D64394;" d="M333.36,140.013c11.735,6.794,22.503,15.079,32.023,24.6l-64.746,64.746
	c-11.42-11.432-27.199-18.494-44.644-18.494v-91.561c9.171,0,18.144,0.792,26.873,2.331
	C300.975,124.805,318.001,131.121,333.36,140.013z"/>
<path style="fill:#F7B239;" d="M295.824,48.196c26.838,4.696,52.067,14.066,74.826,27.234l-0.023,0.035l-37.267,64.548
	c-15.359-8.892-32.385-15.208-50.494-18.377l12.947-73.405L295.824,48.196z"/>
<polygon style="fill:#9AD14B;" points="292.06,8.738 275.221,45.539 255.993,87.573 236.777,45.539 236.765,45.539 219.938,8.738 
	"/>
<path style="fill:#2BA5F7;" d="M236.765,45.539h0.012l19.216,42.034l19.228-42.034c6.957,0.583,13.833,1.468,20.603,2.657
	l-0.012,0.035l-12.947,73.405c-8.728-1.538-17.701-2.331-26.873-2.331c-9.16,0-18.121,0.792-26.849,2.319l-12.959-73.393
	l-0.012-0.035C222.944,47.007,229.808,46.122,236.765,45.539z"/>
<path style="fill:#D64394;" d="M365.383,383.393c-9.521,9.521-20.289,17.806-32.023,24.6c-15.359,8.892-32.385,15.208-50.494,18.377
	c-8.728,1.538-17.701,2.331-26.873,2.331v-91.561c17.445,0,33.224-7.062,44.644-18.494L365.383,383.393z"/>
<path style="fill:#564C89;" d="M146.615,164.613c9.521-9.532,20.289-17.818,32.023-24.6c15.359-8.892,32.396-15.219,50.506-18.389
	c8.728-1.527,17.69-2.319,26.849-2.319v91.561c-17.433,0-33.224,7.062-44.644,18.494L146.615,164.613z"/>
<path style="fill:#9AD14B;" d="M211.349,229.359c11.42-11.432,27.211-18.494,44.644-18.494c17.445,0,33.224,7.062,44.644,18.494
	c11.432,11.432,18.494,27.211,18.494,44.644s-7.062,33.212-18.494,44.644c-11.42,11.432-27.199,18.494-44.644,18.494
	c-17.433,0-33.224-7.062-44.644-18.494s-18.494-27.211-18.494-44.644C192.855,256.57,199.929,240.791,211.349,229.359z"/>
<path style="fill:#F7B239;" d="M178.638,407.994c-11.735-6.782-22.503-15.068-32.023-24.6l64.734-64.746
	c11.42,11.432,27.211,18.494,44.644,18.494v91.561c-9.16,0-18.121-0.792-26.849-2.319
	C211.034,423.213,193.997,416.885,178.638,407.994z"/>
<path style="fill:#2BA5F7;" d="M255.993,428.702c9.171,0,18.144-0.792,26.873-2.331l12.947,73.405l0.012,0.035
	c-12.935,2.272-26.243,3.449-39.82,3.449c-13.576,0-26.884-1.177-39.82-3.449l0.012-0.035l12.947-73.393
	C237.872,427.909,246.833,428.702,255.993,428.702z"/>
<path style="fill:#F95428;" d="M216.185,48.231l12.959,73.393c-18.109,3.17-35.147,9.497-50.506,18.389L141.37,75.465l-0.012-0.035
	c22.759-13.168,47.977-22.538,74.815-27.234L216.185,48.231z"/>
<path style="fill:#F7B239;" d="M178.638,407.994c15.359,8.892,32.396,15.219,50.506,18.389l-12.947,73.393l-0.012,0.035
	c-26.838-4.696-52.079-14.066-74.838-27.234l0.023-0.035L178.638,407.994z"/>
<path style="fill:#F95428;" d="M137.478,373.453c2.913,3.449,5.955,6.771,9.136,9.94c9.521,9.532,20.289,17.818,32.023,24.6
	l-37.267,64.548l-0.023,0.035c-23.202-13.425-43.828-30.8-60.97-51.205L137.478,373.453z"/>
<path style="fill:#D64394;" d="M110.594,221.085c6.223-17.13,15.394-32.839,26.896-46.532c2.902-3.449,5.943-6.771,9.125-9.94
	l64.734,64.746c-11.42,11.432-18.494,27.211-18.494,44.644h-91.549h-0.012C101.295,255.416,104.569,237.587,110.594,221.085z"/>
<path style="fill:#F7B239;" d="M141.37,75.465l37.267,64.548c-11.735,6.782-22.503,15.068-32.023,24.6
	c-3.181,3.17-6.223,6.491-9.125,9.94l-57.113-47.907c17.142-20.417,37.769-37.792,60.982-51.217L141.37,75.465z"/>
<g>
	<path style="fill:#2BA5F7;" d="M80.377,126.646l57.113,47.907c-11.502,13.693-20.673,29.401-26.896,46.532l-70.025-25.486
		l-0.047-0.023C49.752,170.207,63.34,146.935,80.377,126.646z"/>
	<path style="fill:#2BA5F7;" d="M137.478,373.453l-57.102,47.919c-17.037-20.277-30.625-43.56-39.855-68.941l0.047-0.012
		l70.025-25.486C116.817,344.052,125.988,359.76,137.478,373.453z"/>
</g>
<path style="fill:#564C89;" d="M110.594,326.933c-6.025-16.513-9.299-34.342-9.299-52.93h0.012h91.549
	c0,17.433,7.074,33.212,18.494,44.644l-64.734,64.746c-3.181-3.17-6.223-6.491-9.136-9.94
	C125.988,359.76,116.817,344.052,110.594,326.933z"/>
<path style="fill:#F7B239;" d="M40.569,352.419l-0.047,0.012c-8.915-24.472-13.774-50.879-13.774-78.427h74.547
	c0,18.587,3.275,36.417,9.299,52.93L40.569,352.419z"/>
<path style="fill:#F95428;" d="M26.748,274.003c0-27.549,4.859-53.967,13.774-78.427l0.047,0.023l70.025,25.486
	c-6.025,16.501-9.299,34.331-9.299,52.918H26.748z"/>
<path style="fill:#333333;" d="M430.761,112.445c-37.736-40.798-87.977-66.875-142.556-74.265l11.805-25.803
	c1.238-2.706,1.014-5.855-0.594-8.359C297.809,1.514,295.038,0,292.063,0h-72.129c-2.975,0-5.746,1.514-7.354,4.017
	s-1.832,5.653-0.594,8.359l11.804,25.803c-54.577,7.389-104.82,33.467-142.554,74.27c-40.775,44.089-63.231,101.465-63.231,161.554
	C18.003,405.235,124.768,512,256,512s237.997-106.765,237.997-237.997C493.998,213.91,471.54,156.534,430.761,112.445z
	 M330.022,419.694l28.558,49.465c-17.34,9.151-36.038,16.057-55.709,20.332l-9.921-56.261
	C305.97,430.209,318.396,425.625,330.022,419.694z M264.738,419.694v-74.362c13.283-1.619,25.452-6.87,35.491-14.735l52.556,52.556
	C329.046,404.229,298.411,417.695,264.738,419.694z M219.052,433.23l-9.921,56.26c-19.671-4.274-38.369-11.18-55.709-20.332
	l28.557-49.462C193.607,425.629,206.033,430.211,219.052,433.23z M159.209,383.153l52.556-52.556
	c10.039,7.865,22.209,13.115,35.493,14.735v74.362C213.583,417.695,182.95,404.229,159.209,383.153z M181.978,128.314
	l-28.606-49.545c17.524-9.226,36.259-16.058,55.752-20.277l9.925,56.289C206.032,117.8,193.606,122.382,181.978,128.314z
	 M247.258,128.316v74.362c-13.283,1.619-25.452,6.87-35.493,14.735l-52.556-52.556C182.95,143.782,213.583,130.316,247.258,128.316z
	 M292.952,114.782l9.925-56.288c19.491,4.219,38.228,11.051,55.751,20.278l-28.605,49.545
	C318.396,122.385,305.971,117.803,292.952,114.782z M352.786,164.857l-52.556,52.556c-10.039-7.865-22.209-13.115-35.491-14.735
	v-74.362C298.411,130.316,329.046,143.782,352.786,164.857z M312.59,318.237c7.865-10.039,13.116-22.21,14.735-35.493h74.362
	c-1.999,33.675-15.464,64.308-36.54,88.048L312.59,318.237z M255.998,328.402c-29.995,0-54.397-24.402-54.397-54.397
	s24.402-54.397,54.397-54.397s54.397,24.402,54.397,54.397S285.992,328.402,255.998,328.402z M146.849,370.794
	c-21.075-23.74-34.541-54.375-36.54-88.048h74.362c1.619,13.283,6.87,25.453,14.735,35.493L146.849,370.794z M199.405,229.773
	c-7.865,10.039-13.116,22.209-14.735,35.493h-74.362c1.999-33.674,15.464-64.308,36.54-88.048L199.405,229.773z M365.145,177.216
	c21.075,23.74,34.541,54.373,36.54,88.048h-74.362c-1.619-13.283-6.87-25.452-14.733-35.493L365.145,177.216z M386.586,175.84
	l43.827-36.775c12.249,15.804,22.207,33.076,29.692,51.351l-53.739,19.559C401.145,197.766,394.48,186.315,386.586,175.84z
	 M105.632,209.974l-53.733-19.557c7.485-18.276,17.442-35.547,29.69-51.352l43.822,36.771
	C117.517,186.312,110.852,197.762,105.632,209.974z M99.641,226.395c-3.784,12.402-6.133,25.422-6.845,38.87H35.669
	c0.785-20.025,4.262-39.652,10.253-58.422L99.641,226.395z M92.795,282.744c0.712,13.449,3.063,26.468,6.845,38.87l-53.688,19.54
	c-5.939-18.532-9.484-38.123-10.278-58.411h57.121V282.744z M105.632,338.036c5.22,12.212,11.885,23.662,19.78,34.137
	l-43.744,36.706c-12.081-15.581-22.119-32.816-29.72-51.304L105.632,338.036z M406.365,338.034l53.691,19.542
	c-7.6,18.488-17.639,35.725-29.72,51.304l-43.748-36.709C394.48,361.695,401.145,350.244,406.365,338.034z M412.356,321.612
	c3.783-12.4,6.133-25.419,6.845-38.867h57.129c-0.795,20.287-4.34,39.878-10.278,58.411L412.356,321.612z M419.201,265.264
	c-0.712-13.448-3.061-26.466-6.845-38.867l53.726-19.554c5.991,18.769,9.467,38.397,10.253,58.422H419.201z M417.928,124.313
	c0.418,0.453,0.824,0.915,1.239,1.372l-43.831,36.778c-8.993-9.615-19.129-18.147-30.193-25.374l28.617-49.565
	C389.86,97.712,404.723,110.036,417.928,124.313z M278.453,17.48l-22.455,49.083L233.543,17.48H278.453z M248.05,91.209
	c1.423,3.109,4.529,5.104,7.948,5.104c3.419,0,6.526-1.994,7.948-5.104l16.634-36.36c1.698,0.189,3.391,0.396,5.081,0.623
	l-9.925,56.29c-6.472-0.783-13.056-1.196-19.737-1.196c-6.677,0-13.259,0.413-19.729,1.194l-9.926-56.292
	c1.687-0.227,3.378-0.434,5.074-0.622L248.05,91.209z M138.242,87.52l28.616,49.564c-11.065,7.229-21.202,15.759-30.195,25.374
	l-43.827-36.776c0.413-0.454,0.817-0.915,1.234-1.366C107.275,110.037,122.139,97.711,138.242,87.52z M92.905,422.268l43.757-36.716
	c8.994,9.615,19.131,18.147,30.196,25.375l-28.562,49.471C121.502,449.754,106.23,436.913,92.905,422.268z M226.347,492.52
	l9.923-56.271c6.47,0.782,13.052,1.194,19.728,1.194c6.68,0,13.264-0.413,19.736-1.194l9.923,56.272
	c-9.703,1.31-19.599,2.001-29.655,2.001C245.945,494.52,236.049,493.83,226.347,492.52z M373.706,460.397l-28.564-49.474
	c11.064-7.229,21.201-15.759,30.194-25.375l43.761,36.72C405.773,436.913,390.502,449.754,373.706,460.397z"/>
<g>
</g>
<g>
</g>
<g>
</g>
<g>
</g>
<g>
</g>
<g>
</g>
<g>
</g>
<g>
</g>
<g>
</g>
<g>
</g>
<g>
</g>
<g>
</g>
<g>
</g>
<g>
</g>
<g>
</g>
</svg>
