<?xml version="1.0" encoding="iso-8859-1"?>
<!-- Generator: Adobe Illustrator 19.0.0, SVG Export Plug-In . SVG Version: 6.00 Build 0)  -->
<svg version="1.1" id="Layer_1" xmlns="http://www.w3.org/2000/svg" xmlns:xlink="http://www.w3.org/1999/xlink" x="0px" y="0px"
	 viewBox="0 0 512.002 512.002" style="enable-background:new 0 0 512.002 512.002;" xml:space="preserve">
<polygon style="fill:#A7E4F9;" points="408.158,21.853 502.197,138.58 331.304,138.58 "/>
<polygon style="fill:#58C8F9;" points="502.197,138.58 256.005,490.147 331.304,138.58 "/>
<polygon style="fill:#6EC7F9;" points="408.158,21.853 331.304,138.58 256.005,21.853 "/>
<polygon style="fill:#2BA5F7;" points="256.005,21.853 331.304,138.58 180.707,138.58 "/>
<g>
	<polygon style="fill:#A7E4F9;" points="331.304,138.58 256.005,490.147 180.707,138.58 	"/>
	<polygon style="fill:#A7E4F9;" points="256.005,21.853 180.707,138.58 103.852,21.853 	"/>
</g>
<polygon style="fill:#0E79A8;" points="180.707,138.58 256.005,490.147 9.814,138.58 "/>
<polygon style="fill:#2BA5F7;" points="103.852,21.853 180.707,138.58 9.814,138.58 "/>
<path style="fill:#333333;" d="M509.83,132.422L415.793,15.704c-1.861-2.311-4.669-3.654-7.637-3.654h-304.31
	c-2.969,0-5.776,1.343-7.637,3.654L2.171,132.422c-2.741,3.401-2.902,8.202-0.398,11.78l246.193,351.568
	c0.018,0.026,0.041,0.048,0.059,0.075c0.207,0.289,0.425,0.568,0.662,0.832c0.033,0.037,0.069,0.071,0.103,0.107
	c0.205,0.222,0.421,0.434,0.646,0.637c0.073,0.065,0.146,0.131,0.221,0.194c0.247,0.209,0.502,0.411,0.768,0.595
	c0.02,0.013,0.037,0.029,0.056,0.042c0.286,0.195,0.586,0.369,0.892,0.534c0.08,0.042,0.16,0.082,0.239,0.122
	c0.26,0.131,0.526,0.25,0.798,0.357c0.06,0.024,0.118,0.05,0.178,0.072c0.328,0.123,0.664,0.226,1.008,0.314
	c0.067,0.017,0.135,0.029,0.203,0.044c0.281,0.065,0.565,0.116,0.854,0.157c0.093,0.013,0.186,0.026,0.28,0.037
	c0.353,0.038,0.709,0.065,1.07,0.065c0.361,0,0.717-0.026,1.07-0.065c0.094-0.01,0.187-0.024,0.28-0.037
	c0.289-0.041,0.573-0.092,0.854-0.157c0.068-0.016,0.136-0.027,0.203-0.044c0.343-0.086,0.68-0.191,1.008-0.314
	c0.06-0.022,0.118-0.048,0.178-0.072c0.272-0.107,0.537-0.226,0.798-0.357c0.08-0.041,0.16-0.08,0.239-0.122
	c0.306-0.163,0.605-0.339,0.892-0.534c0.02-0.013,0.037-0.029,0.056-0.042c0.267-0.184,0.52-0.384,0.768-0.595
	c0.075-0.064,0.148-0.128,0.221-0.194c0.225-0.203,0.441-0.415,0.646-0.637c0.034-0.037,0.071-0.069,0.103-0.107
	c0.235-0.264,0.454-0.543,0.662-0.832c0.018-0.026,0.041-0.048,0.059-0.075l246.193-351.568
	C512.732,140.625,512.571,135.823,509.83,132.422z M198.702,128.768l57.299-88.816l57.299,88.816H198.702z M319.168,148.384
	l-63.167,294.929l-63.167-294.929C192.834,148.384,319.168,148.384,319.168,148.384z M274.001,31.666h115.954l-58.572,88.949
	L274.001,31.666z M180.618,120.614l-58.571-88.949H238L180.618,120.614z M162.5,128.768H30.306l72.743-90.288L162.5,128.768z
	 M172.773,148.384l63.503,296.492L28.65,148.384H172.773z M339.23,148.384h144.121L275.727,444.876L339.23,148.384z
	 M349.501,128.768l59.453-90.288l72.743,90.288H349.501z"/>
<g>
	<path style="fill:#FFFFFF;" d="M395.277,64.354H300.98c-5.418,0-9.808-4.391-9.808-9.808s4.39-9.808,9.808-9.808h94.297
		c5.418,0,9.808,4.391,9.808,9.808S400.694,64.354,395.277,64.354z"/>
	<circle style="fill:#FFFFFF;" cx="265.154" cy="54.546" r="9.808"/>
</g>
<g>
</g>
<g>
</g>
<g>
</g>
<g>
</g>
<g>
</g>
<g>
</g>
<g>
</g>
<g>
</g>
<g>
</g>
<g>
</g>
<g>
</g>
<g>
</g>
<g>
</g>
<g>
</g>
<g>
</g>
</svg>
