<?xml version="1.0" encoding="iso-8859-1"?>
<!-- Generator: Adobe Illustrator 19.0.0, SVG Export Plug-In . SVG Version: 6.00 Build 0)  -->
<svg version="1.1" id="Layer_1" xmlns="http://www.w3.org/2000/svg" xmlns:xlink="http://www.w3.org/1999/xlink" x="0px" y="0px"
	 viewBox="0 0 512 512" style="enable-background:new 0 0 512 512;" xml:space="preserve">
<g>
	<path style="fill:#CCCCCC;" d="M480.981,212.175l-174.562,65.116c-7.813,2.915-16.509-1.056-19.423-8.869L221.88,93.86
		c-2.915-7.813,1.056-16.509,8.869-19.423L405.311,9.321c7.813-2.915,16.509,1.056,19.423,8.869l65.116,174.562
		C492.765,200.565,488.794,209.262,480.981,212.175z"/>
	<path style="fill:#CCCCCC;" d="M200.222,502.329L30.133,426.291c-7.612-3.403-11.025-12.333-7.621-19.945l76.039-170.089
		c3.403-7.612,12.333-11.025,19.945-7.621l170.089,76.039c7.612,3.403,11.025,12.333,7.621,19.945l-76.039,170.089
		C216.765,502.321,207.834,505.732,200.222,502.329z"/>
</g>
<path style="fill:#333333;" d="M301.131,286.614c-3.317,0-6.624-0.713-9.73-2.131c-5.699-2.603-10.045-7.268-12.233-13.139
	L214.049,96.782c-4.519-12.118,1.662-25.653,13.779-30.174L402.391,1.492c5.869-2.189,12.242-1.962,17.94,0.64
	c5.699,2.603,10.045,7.268,12.233,13.139l65.116,174.561c2.189,5.87,1.963,12.241-0.64,17.941
	c-2.603,5.699-7.268,10.043-13.139,12.233l0,0l-174.562,65.116C306.671,286.117,303.896,286.614,301.131,286.614z M410.591,16.722
	c-0.796,0-1.593,0.143-2.36,0.429L233.669,82.268c-3.483,1.299-5.26,5.19-3.961,8.673l65.117,174.561
	c0.628,1.687,1.879,3.028,3.515,3.776c1.639,0.749,3.47,0.813,5.157,0.184l174.562-65.117c1.687-0.63,3.028-1.879,3.777-3.516
	c0.748-1.638,0.812-3.47,0.184-5.155L416.903,21.11c-0.628-1.687-1.879-3.028-3.515-3.776
	C412.495,16.927,411.545,16.722,410.591,16.722z M480.981,212.175h0.011H480.981z"/>
<g>
	<circle style="fill:#F7B239;" cx="387.575" cy="74.272" r="14.087"/>
	<circle style="fill:#F7B239;" cx="425.046" cy="174.707" r="14.087"/>
	<circle style="fill:#F7B239;" cx="324.155" cy="212.345" r="14.087"/>
	<circle style="fill:#F7B239;" cx="286.684" cy="111.91" r="14.087"/>
	<circle style="fill:#F7B239;" cx="406.316" cy="124.49" r="14.087"/>
	<circle style="fill:#F7B239;" cx="305.414" cy="162.127" r="14.087"/>
	<circle style="fill:#F7B239;" cx="158.484" cy="365.091" r="14.087"/>
</g>
<g>
	<path style="fill:#333333;" d="M387.566,96.726c-3.174,0-6.338-0.682-9.31-2.04c-5.454-2.49-9.611-6.955-11.707-12.572
		c-2.095-5.617-1.877-11.714,0.613-17.167c2.49-5.454,6.956-9.61,12.573-11.706c5.614-2.096,11.712-1.877,17.167,0.613
		c5.453,2.49,9.61,6.955,11.706,12.572c4.325,11.594-1.59,24.547-13.184,28.872C392.869,96.251,390.214,96.726,387.566,96.726z
		 M387.582,68.535c-0.676,0-1.354,0.121-2.007,0.364c-1.434,0.535-2.575,1.597-3.211,2.989c-0.635,1.393-0.691,2.948-0.156,4.383
		l0,0c0.534,1.434,1.597,2.574,2.989,3.21c1.392,0.635,2.948,0.692,4.384,0.156c2.96-1.104,4.47-4.411,3.366-7.372
		c-0.534-1.434-1.597-2.575-2.989-3.21C389.2,68.71,388.391,68.535,387.582,68.535z"/>
	<path style="fill:#333333;" d="M425.068,197.152c-9.105,0-17.689-5.582-21.054-14.601l0,0c-2.095-5.617-1.877-11.714,0.613-17.167
		c2.49-5.454,6.956-9.61,12.573-11.706c5.614-2.095,11.712-1.879,17.167,0.613c5.453,2.49,9.61,6.955,11.706,12.572
		c4.325,11.596-1.59,24.547-13.184,28.872C430.313,196.697,427.669,197.152,425.068,197.152z M419.676,176.71
		c1.104,2.962,4.412,4.469,7.373,3.366c2.96-1.104,4.47-4.411,3.366-7.373c-0.534-1.434-1.597-2.574-2.989-3.21
		c-1.391-0.636-2.946-0.692-4.383-0.156c-1.434,0.535-2.575,1.597-3.211,2.989C419.195,173.72,419.14,175.276,419.676,176.71
		L419.676,176.71z"/>
	<path style="fill:#333333;" d="M324.14,234.799c-3.174,0-6.338-0.682-9.311-2.04c-5.454-2.49-9.61-6.955-11.706-12.572
		c-4.325-11.594,1.59-24.547,13.184-28.872c11.593-4.324,24.545,1.589,28.872,13.183c2.096,5.618,1.879,11.715-0.612,17.168
		c-2.49,5.454-6.955,9.61-12.573,11.706C329.442,234.325,326.788,234.799,324.14,234.799z M324.145,206.613
		c-0.664,0-1.338,0.116-1.997,0.362c-2.96,1.104-4.47,4.411-3.366,7.372l0,0c0.534,1.434,1.597,2.574,2.989,3.21
		c1.391,0.636,2.948,0.692,4.383,0.157c1.434-0.535,2.575-1.597,3.211-2.989c0.635-1.393,0.691-2.948,0.156-4.383
		C328.663,208.038,326.47,206.613,324.145,206.613z"/>
	<path style="fill:#333333;" d="M286.674,134.361c-3.174,0-6.338-0.682-9.311-2.04c-5.453-2.49-9.61-6.955-11.706-12.572l0,0
		c-4.325-11.594,1.59-24.547,13.184-28.872c11.593-4.324,24.547,1.59,28.872,13.184c4.325,11.596-1.59,24.547-13.184,28.872
		C291.976,133.887,289.322,134.361,286.674,134.361z M281.317,113.908c0.534,1.434,1.597,2.574,2.989,3.21
		c1.391,0.636,2.947,0.692,4.383,0.156c2.96-1.104,4.47-4.411,3.366-7.373c-1.103-2.959-4.406-4.47-7.372-3.366
		C281.722,107.641,280.213,110.948,281.317,113.908L281.317,113.908z"/>
	<path style="fill:#333333;" d="M406.301,146.944c-3.174,0-6.338-0.682-9.311-2.04c-5.454-2.49-9.61-6.955-11.706-12.572
		c-4.325-11.594,1.59-24.547,13.184-28.872c11.596-4.324,24.547,1.59,28.872,13.184c4.325,11.594-1.59,24.547-13.184,28.872
		C411.601,146.47,408.948,146.944,406.301,146.944z M406.305,118.758c-0.664,0-1.338,0.116-1.997,0.361
		c-2.96,1.104-4.47,4.411-3.366,7.372l0,0c0.534,1.434,1.597,2.574,2.989,3.21c1.392,0.636,2.947,0.692,4.383,0.156
		c2.959-1.104,4.47-4.411,3.366-7.372C410.821,120.183,408.629,118.758,406.305,118.758z"/>
	<path style="fill:#333333;" d="M305.443,184.569c-9.105,0-17.688-5.582-21.053-14.601c-2.096-5.617-1.879-11.714,0.612-17.167
		s6.955-9.61,12.573-11.706c5.614-2.095,11.712-1.879,17.167,0.613c5.454,2.49,9.61,6.955,11.706,12.572
		c4.325,11.594-1.59,24.547-13.184,28.872C310.687,184.114,308.043,184.569,305.443,184.569z M305.422,156.39
		c-0.675,0-1.353,0.121-2.006,0.364c-1.434,0.535-2.575,1.597-3.21,2.989c-0.636,1.392-0.691,2.948-0.157,4.382
		c0,0,0.001,0,0.001,0.001c1.103,2.96,4.408,4.471,7.372,3.366c2.96-1.104,4.47-4.411,3.366-7.372
		c-0.534-1.434-1.597-2.575-2.989-3.21C307.041,156.565,306.232,156.39,305.422,156.39z"/>
	<path style="fill:#333333;" d="M206.35,512c-3.194,0-6.437-0.655-9.538-2.041l0,0L26.724,433.92
		c-5.72-2.556-10.101-7.188-12.338-13.041c-2.237-5.852-2.06-12.225,0.497-17.945l76.039-170.088
		c2.556-5.719,7.187-10.1,13.04-12.338c5.853-2.237,12.227-2.059,17.944,0.497l170.088,76.039
		c5.72,2.557,10.101,7.188,12.338,13.041c2.237,5.852,2.06,12.225-0.497,17.945l-76.038,170.089
		C223.904,506.825,215.322,512,206.35,512z M203.633,494.701c3.395,1.516,7.389-0.009,8.907-3.404l76.038-170.089
		c0.734-1.645,0.786-3.476,0.143-5.158c-0.642-1.682-1.902-3.013-3.547-3.748l-170.089-76.039c-1.647-0.735-3.477-0.787-5.158-0.143
		c-1.682,0.643-3.013,1.902-3.747,3.545l-76.04,170.09c-0.734,1.645-0.786,3.476-0.143,5.158c0.642,1.682,1.902,3.013,3.547,3.748
		L203.633,494.701z"/>
</g>
<path style="fill:#FFFFFF;" d="M265.566,333.255c-1.14,0-2.299-0.234-3.406-0.73l-79.474-35.529
	c-4.214-1.883-6.102-6.826-4.218-11.04c1.884-4.214,6.826-6.103,11.038-4.218l79.474,35.529c4.214,1.883,6.102,6.826,4.218,11.04
	C271.811,331.413,268.76,333.255,265.566,333.255z"/>
<path style="fill:#333333;" d="M158.481,387.549c-3.114,0-6.222-0.657-9.151-1.967c-5.473-2.447-9.667-6.878-11.806-12.478
	c-2.14-5.6-1.971-11.698,0.477-17.171l0,0c2.446-5.473,6.878-9.666,12.477-11.805c5.6-2.139,11.698-1.972,17.171,0.476
	c5.473,2.447,9.667,6.878,11.806,12.478c2.14,5.6,1.971,11.699-0.477,17.172c-2.446,5.472-6.878,9.665-12.477,11.805
	C163.897,387.053,161.186,387.549,158.481,387.549z M158.491,359.359c-0.691,0-1.383,0.127-2.048,0.381
	c-1.43,0.546-2.562,1.617-3.186,3.014l0,0c-0.625,1.397-0.669,2.955-0.121,4.384c0.547,1.43,1.617,2.562,3.014,3.186
	c1.399,0.625,2.955,0.667,4.386,0.121c1.43-0.546,2.562-1.617,3.186-3.014c0.625-1.398,0.669-2.955,0.121-4.384
	s-1.617-2.562-3.014-3.186C160.079,359.528,159.286,359.359,158.491,359.359z M145.628,359.344h0.011H145.628z"/>
<g>
	<path style="fill:#FFFFFF;" d="M442.88,154.891c-3.389,0-6.576-2.077-7.831-5.438l-29.58-79.297
		c-1.612-4.324,0.585-9.138,4.909-10.75c4.321-1.612,9.135,0.585,10.75,4.909l29.58,79.297c1.612,4.324-0.585,9.138-4.909,10.75
		C444.838,154.72,443.85,154.891,442.88,154.891z"/>
	<circle style="fill:#FFFFFF;" cx="163.999" cy="279.487" r="8.357"/>
	<circle style="fill:#FFFFFF;" cx="403.085" cy="39.871" r="8.357"/>
</g>
<g>
</g>
<g>
</g>
<g>
</g>
<g>
</g>
<g>
</g>
<g>
</g>
<g>
</g>
<g>
</g>
<g>
</g>
<g>
</g>
<g>
</g>
<g>
</g>
<g>
</g>
<g>
</g>
<g>
</g>
</svg>
