<?xml version="1.0" encoding="iso-8859-1"?>
<!-- Generator: Adobe Illustrator 19.0.0, SVG Export Plug-In . SVG Version: 6.00 Build 0)  -->
<svg version="1.1" id="Layer_1" xmlns="http://www.w3.org/2000/svg" xmlns:xlink="http://www.w3.org/1999/xlink" x="0px" y="0px"
	 viewBox="0 0 512 512" style="enable-background:new 0 0 512 512;" xml:space="preserve">
<path style="fill:#F7B239;" d="M256,502.119c-130.467,0-236.222-111.742-236.222-249.586c0-36.118,7.253-70.439,20.319-101.427
	l32.316-82.165L28.76,57.387L53.154,9.884l105.353,41.089c-29.218,33.859-47.576,82.741-47.576,137.109
	c0,102.244,64.954,185.135,145.071,185.135s145.071-82.891,145.071-185.135c0-54.367-18.358-103.25-47.576-137.109L458.848,9.884
	l24.394,47.503L439.59,68.942l32.316,82.165c13.064,30.988,20.319,65.309,20.319,101.427
	C492.222,390.377,386.468,502.119,256,502.119z"/>
<path style="fill:#333333;" d="M256.001,512C120.298,512,9.897,395.604,9.897,252.533c0-36.607,7.082-71.985,21.047-105.151
	l28.21-71.729l-32.923-8.714c-2.892-0.767-5.282-2.801-6.499-5.535c-1.216-2.733-1.129-5.871,0.237-8.532L44.363,5.369
	c2.314-4.506,7.661-6.534,12.381-4.692l105.352,41.089c2.989,1.166,5.227,3.71,6,6.823c0.773,3.113-0.013,6.408-2.109,8.838
	c-28.71,33.27-45.176,80.891-45.176,130.653c0,96.635,60.646,175.253,135.189,175.253s135.188-78.618,135.188-175.253
	c0-49.762-16.466-97.383-45.176-130.653c-2.096-2.429-2.883-5.725-2.109-8.838s3.01-5.657,6-6.823L455.254,0.678
	c4.719-1.839,10.067,0.187,12.381,4.692l24.394,47.503c1.366,2.661,1.455,5.798,0.237,8.532c-1.216,2.734-3.606,4.768-6.499,5.535
	l-32.921,8.714l28.21,71.729c13.966,33.167,21.047,68.545,21.047,105.151C502.104,395.604,391.703,512,256.001,512z M43.16,50.976
	l31.78,8.412c2.726,0.722,5.014,2.574,6.287,5.09c1.274,2.516,1.411,5.456,0.379,8.08l-32.316,82.166
	c-0.029,0.075-0.059,0.149-0.091,0.221c-12.967,30.757-19.543,63.591-19.543,97.588c0,132.174,101.536,239.704,226.341,239.704
	s226.341-107.531,226.341-239.704c0-33.998-6.574-66.832-19.543-97.588c-0.03-0.074-0.061-0.148-0.09-0.221l-32.316-82.166
	c-1.033-2.624-0.895-5.564,0.379-8.08c1.274-2.515,3.561-4.368,6.287-5.09l31.78-8.412l-14.71-28.647l-84.554,32.977
	c26.425,35.88,41.375,83.465,41.375,132.774c0,51.649-15.838,100.303-44.595,137.003c-29.315,37.411-68.506,58.012-110.356,58.012
	c-41.851,0-81.042-20.603-110.357-58.012c-28.757-36.699-44.595-85.355-44.595-137.004c0-49.309,14.951-96.895,41.375-132.774
	L57.868,22.33L43.16,50.976z"/>
<g>
	<path style="fill:#FFFFFF;" d="M453.423,314.212c-0.738,0-1.485-0.083-2.233-0.256c-5.317-1.229-8.632-6.535-7.403-11.852
		c3.727-16.13,5.618-32.809,5.618-49.571c0-29.579-5.705-58.107-16.955-84.792l-0.154-0.362c-0.032-0.075-0.062-0.152-0.092-0.228
		l-4.315-10.972c-1.997-5.078,0.501-10.814,5.578-12.813c5.076-2,10.814,0.499,12.813,5.578l4.378,11.113
		c12.283,29.133,18.51,60.244,18.51,92.474c0,18.258-2.061,36.433-6.124,54.02C461.986,311.123,457.919,314.212,453.423,314.212z"/>
	<path style="fill:#FFFFFF;" d="M104.551,312.967c-3.609,0-7.086-1.984-8.826-5.424c-18.066-35.729-27.614-77.039-27.614-119.461
		c0-5.457,4.424-9.881,9.881-9.881s9.881,4.424,9.881,9.881c0,39.339,8.813,77.566,25.488,110.544
		c2.462,4.871,0.51,10.814-4.36,13.278C107.572,312.625,106.05,312.967,104.551,312.967z"/>
</g>
<g>
	<circle style="fill:#B27214;" cx="108.365" cy="360.641" r="23.623"/>
	<circle style="fill:#B27214;" cx="403.645" cy="360.641" r="23.623"/>
	<circle style="fill:#B27214;" cx="256.005" cy="440.957" r="23.623"/>
</g>
<g>
	<path style="fill:#333333;" d="M108.361,394.146c-18.474,0-33.504-15.03-33.504-33.504c0-18.474,15.03-33.504,33.504-33.504
		c18.473,0,33.503,15.03,33.503,33.504C141.864,379.115,126.835,394.146,108.361,394.146z M108.361,346.901
		c-7.577,0-13.742,6.165-13.742,13.742c0,7.577,6.165,13.742,13.742,13.742c7.576,0,13.74-6.165,13.74-13.742
		C122.101,353.066,115.938,346.901,108.361,346.901z"/>
	<path style="fill:#333333;" d="M403.639,394.146c-18.473,0-33.503-15.03-33.503-33.504c0-18.474,15.03-33.504,33.503-33.504
		c18.474,0,33.504,15.03,33.504,33.504C437.144,379.115,422.113,394.146,403.639,394.146z M403.639,346.901
		c-7.576,0-13.74,6.165-13.74,13.742c0,7.577,6.165,13.742,13.74,13.742c7.577,0,13.742-6.165,13.742-13.742
		C417.381,353.066,411.216,346.901,403.639,346.901z"/>
	<path style="fill:#333333;" d="M256.001,474.462c-18.474,0-33.504-15.03-33.504-33.504c0-18.474,15.03-33.504,33.504-33.504
		c18.473,0,33.503,15.03,33.503,33.504C289.504,459.432,274.474,474.462,256.001,474.462z M256.001,427.216
		c-7.577,0-13.742,6.165-13.742,13.742c0,7.577,6.165,13.742,13.742,13.742c7.576,0,13.74-6.165,13.74-13.742
		C269.741,433.381,263.577,427.216,256.001,427.216z"/>
</g>
<circle style="fill:#FFFFFF;" cx="425.331" cy="122.739" r="9.881"/>
<g>
</g>
<g>
</g>
<g>
</g>
<g>
</g>
<g>
</g>
<g>
</g>
<g>
</g>
<g>
</g>
<g>
</g>
<g>
</g>
<g>
</g>
<g>
</g>
<g>
</g>
<g>
</g>
<g>
</g>
</svg>
