<?xml version="1.0" encoding="iso-8859-1"?>
<!-- Generator: Adobe Illustrator 19.0.0, SVG Export Plug-In . SVG Version: 6.00 Build 0)  -->
<svg version="1.1" id="Layer_1" xmlns="http://www.w3.org/2000/svg" xmlns:xlink="http://www.w3.org/1999/xlink" x="0px" y="0px"
	 viewBox="0 0 512 512" style="enable-background:new 0 0 512 512;" xml:space="preserve">
<path style="fill:#F95428;" d="M410.412,207.462c16.266,0,29.443,13.177,29.443,29.443c0,16.255-13.177,29.443-29.443,29.443
	c-16.266,0-29.443-13.188-29.443-29.443C380.969,220.639,394.147,207.462,410.412,207.462z"/>
<path style="fill:#2BA5F7;" d="M256.003,207.462c16.255,0,29.443,13.177,29.443,29.443c0,16.255-13.188,29.443-29.443,29.443
	c-16.266,0-29.443-13.188-29.443-29.443C226.56,220.639,239.737,207.462,256.003,207.462z"/>
<g>
	<path style="fill:#F7B239;" d="M101.582,207.462c16.266,0,29.443,13.177,29.443,29.443c0,16.255-13.177,29.443-29.443,29.443
		c-16.255,0-29.443-13.188-29.443-29.443C72.14,220.639,85.328,207.462,101.582,207.462z"/>
	<path style="fill:#F7B239;" d="M333.202,236.905c0,42.642-34.558,77.199-77.199,77.199s-77.21-34.558-77.21-77.199
		s34.568-77.21,77.21-77.21S333.202,194.263,333.202,236.905z M285.446,236.905c0-16.266-13.188-29.443-29.443-29.443
		c-16.266,0-29.443,13.177-29.443,29.443c0,16.255,13.177,29.443,29.443,29.443C272.257,266.348,285.446,253.16,285.446,236.905z"/>
</g>
<path style="fill:#2BA5F7;" d="M410.412,159.695c42.642,0,77.21,34.568,77.21,77.21s-34.568,77.199-77.21,77.199
	s-77.21-34.558-77.21-77.199S367.77,159.695,410.412,159.695z M439.855,236.905c0-16.266-13.177-29.443-29.443-29.443
	c-16.266,0-29.443,13.177-29.443,29.443c0,16.255,13.177,29.443,29.443,29.443C426.678,266.348,439.855,253.16,439.855,236.905z"/>
<path style="fill:#F95428;" d="M178.793,236.905c0,42.642-34.568,77.199-77.21,77.199c-42.631,0-77.199-34.558-77.199-77.199
	s34.568-77.21,77.199-77.21C144.224,159.695,178.793,194.263,178.793,236.905z M131.025,236.905
	c0-16.266-13.177-29.443-29.443-29.443c-16.255,0-29.443,13.177-29.443,29.443c0,16.255,13.188,29.443,29.443,29.443
	C117.848,266.348,131.025,253.16,131.025,236.905z"/>
<path style="fill:#E54728;" d="M46.056,236.905c0-38.962,28.864-71.165,66.364-76.437c-3.544-0.497-7.158-0.773-10.838-0.773
	c-42.631,0-77.199,34.568-77.199,77.21s34.568,77.199,77.199,77.199c3.68,0,7.295-0.275,10.838-0.773
	C74.92,308.062,46.056,275.867,46.056,236.905z"/>
<path style="fill:#E09B2D;" d="M200.466,236.905c0-38.962,28.864-71.165,66.364-76.437c-3.544-0.497-7.158-0.773-10.838-0.773
	c-42.631,0-77.199,34.568-77.199,77.21s34.568,77.199,77.199,77.199c3.68,0,7.295-0.275,10.838-0.773
	C229.33,308.062,200.466,275.867,200.466,236.905z"/>
<path style="fill:#2197D8;" d="M354.875,236.905c0-38.962,28.864-71.165,66.364-76.437c-3.544-0.497-7.158-0.773-10.838-0.773
	c-42.631,0-77.199,34.568-77.199,77.21s34.568,77.199,77.199,77.199c3.68,0,7.295-0.275,10.838-0.773
	C383.739,308.062,354.875,275.867,354.875,236.905z"/>
<g>
	<path style="fill:#FFFFFF;" d="M154.952,229.663c-3.528,0-6.778-2.317-7.804-5.877c-5.825-20.189-24.561-34.291-45.565-34.291
		c-4.49,0-8.127-3.639-8.127-8.127s3.638-8.127,8.127-8.127c28.203,0,53.363,18.932,61.183,46.04
		c1.244,4.312-1.243,8.818-5.556,10.062C156.457,229.559,155.699,229.663,154.952,229.663z"/>
	<path style="fill:#FFFFFF;" d="M308.865,228.032c-3.433,0-6.623-2.192-7.734-5.637c-6.342-19.678-24.476-32.9-45.13-32.9
		c-4.49,0-8.127-3.639-8.127-8.127s3.638-8.127,8.127-8.127c27.735,0,52.088,17.75,60.601,44.169
		c1.377,4.272-0.971,8.851-5.244,10.229C310.533,227.905,309.692,228.032,308.865,228.032z"/>
	<path style="fill:#FFFFFF;" d="M462.901,226.873c-3.366,0-6.513-2.107-7.679-5.465c-6.623-19.087-24.63-31.912-44.81-31.912
		c-4.49,0-8.127-3.639-8.127-8.127s3.638-8.127,8.127-8.127c27.097,0,51.275,17.216,60.166,42.838
		c1.471,4.241-0.774,8.872-5.014,10.342C464.684,226.727,463.784,226.873,462.901,226.873z"/>
</g>
<rect x="8.128" y="314.108" style="fill:#B27214;" width="495.749" height="38.199"/>
<rect x="8.128" y="314.108" style="fill:#995C0D;" width="38.242" height="38.199"/>
<path style="fill:#333333;" d="M495.677,239.629c0.029-0.908,0.069-1.813,0.069-2.728c0-47.053-38.28-85.334-85.333-85.334
	c-34.078,0-63.541,20.085-77.207,49.034c-13.665-28.949-43.128-49.034-77.206-49.034s-63.541,20.085-77.206,49.034
	c-13.666-28.949-43.129-49.034-77.207-49.034c-47.053,0-85.333,38.281-85.333,85.334c0,0.915,0.04,1.819,0.069,2.728
	C6.577,245.261,0,255.789,0,267.831v84.474c0,4.488,3.638,8.127,8.127,8.127h495.745c4.49,0,8.127-3.639,8.127-8.127v-84.474
	C512,255.789,505.422,245.261,495.677,239.629z M495.745,267.831v38.15h-35.32c15.713-11.408,27.403-28.025,32.497-47.307
	C494.701,261.286,495.745,264.438,495.745,267.831z M34.082,251.531h32.901c5.716,13.47,19.074,22.941,34.604,22.941
	s28.889-9.471,34.604-22.941h32.902c-6.731,31.086-34.435,54.45-67.506,54.45C68.517,305.981,40.814,282.617,34.082,251.531z
	 M117.048,251.531c-3.888,4.107-9.374,6.686-15.462,6.686s-11.574-2.579-15.462-6.686H117.048z M80.354,235.276
	c0.836-10.995,10.029-19.689,21.233-19.689s20.398,8.695,21.233,19.689H80.354z M178.794,273.202
	c6.178,13.088,15.588,24.353,27.194,32.779h-54.388C163.205,297.555,172.616,286.289,178.794,273.202z M188.495,251.531h32.901
	c5.716,13.47,19.074,22.941,34.604,22.941s28.889-9.471,34.604-22.941h32.901c-6.731,31.086-34.434,54.45-67.505,54.45
	S195.226,282.617,188.495,251.531z M271.462,251.531c-3.888,4.107-9.374,6.686-15.462,6.686c-6.088,0-11.574-2.579-15.462-6.686
	H271.462z M234.766,235.276c0.835-10.995,10.029-19.689,21.233-19.689c11.204,0,20.398,8.695,21.233,19.689H234.766z
	 M333.205,273.202c6.179,13.088,15.588,24.353,27.194,32.779h-54.388C317.618,297.555,327.027,286.289,333.205,273.202z
	 M342.907,251.531h32.902c5.716,13.47,19.074,22.941,34.604,22.941c15.53,0,28.889-9.471,34.604-22.941h32.901
	c-6.731,31.086-34.434,54.45-67.505,54.45C377.341,305.981,349.638,282.617,342.907,251.531z M425.875,251.531
	c-3.888,4.107-9.374,6.686-15.462,6.686c-6.088,0-11.574-2.579-15.462-6.686H425.875z M389.179,235.276
	c0.836-10.995,10.029-19.689,21.233-19.689s20.398,8.695,21.233,19.689H389.179z M410.412,167.823
	c37.544,0,68.168,30.114,69.037,67.453c-0.002,0-0.003,0-0.005,0h-31.503c-0.855-19.964-17.358-35.944-37.529-35.944
	s-36.674,15.98-37.529,35.944h-31.509C342.244,197.936,372.867,167.823,410.412,167.823z M255.999,167.823
	c37.544,0,68.168,30.114,69.037,67.453h-31.508c-0.855-19.964-17.358-35.944-37.529-35.944s-36.674,15.98-37.529,35.944h-31.508
	C187.832,197.936,218.455,167.823,255.999,167.823z M101.587,167.823c37.545,0,68.168,30.114,69.038,67.453h-31.509
	c-0.855-19.964-17.358-35.944-37.529-35.944s-36.674,15.98-37.529,35.944H32.555c-0.002,0-0.003,0-0.005,0
	C33.42,197.936,64.043,167.823,101.587,167.823z M19.079,258.674c5.092,19.281,16.784,35.898,32.497,47.307H16.255v-38.15
	C16.255,264.438,17.298,261.286,19.079,258.674z M16.255,344.178v-21.942h479.491v21.942H16.255z"/>
<g>
</g>
<g>
</g>
<g>
</g>
<g>
</g>
<g>
</g>
<g>
</g>
<g>
</g>
<g>
</g>
<g>
</g>
<g>
</g>
<g>
</g>
<g>
</g>
<g>
</g>
<g>
</g>
<g>
</g>
</svg>
