<svg height="512pt" viewBox="0 -68 512.00003 512" width="512pt" xmlns="http://www.w3.org/2000/svg"><path d="m503.464844 42.667969v290.132812c0 18.851563-15.28125 34.132813-34.132813 34.132813h-25.597656c18.851563 0 34.132813-15.28125 34.132813-34.132813v-290.132812c0-18.851563-15.28125-34.132813-34.132813-34.132813h25.597656c18.851563 0 34.132813 15.28125 34.132813 34.132813zm0 0" fill="#1566c0"/><path d="m170.667969 42.667969v290.132812c0 18.851563-15.285157 34.132813-34.132813 34.132813h-93.867187c-18.851563 0-34.132813-15.28125-34.132813-34.132813v-290.132812c0-18.851563 15.28125-34.132813 34.132813-34.132813h93.867187c18.847656 0 34.132813 15.28125 34.132813 34.132813zm0 0" fill="#1566c0"/><g fill="#2296f3"><path d="m145.066406 42.667969v290.132812c0 18.851563-15.28125 34.132813-34.132812 34.132813h-68.265625c-18.851563 0-34.132813-15.28125-34.132813-34.132813v-290.132812c0-18.851563 15.28125-34.132813 34.132813-34.132813h68.265625c18.851562 0 34.132812 15.28125 34.132812 34.132813zm0 0"/><path d="m42.667969 119.464844h93.867187v34.136718s-34.136718 51.199219-34.136718 102.398438h-51.199219s17.066406-76.800781 42.667969-102.398438h-51.199219zm0 0"/><path d="m477.867188 42.667969v290.132812c0 18.851563-15.28125 34.132813-34.132813 34.132813h-68.269531c-18.847656 0-34.132813-15.28125-34.132813-34.132813 0 1.339844-.085937 2.679688-.253906 4.011719-.085937 1.023438-.257813 1.960938-.425781 2.898438-.171875.941406-.515625 1.964843-.769532 2.902343-.019531.179688-.074218.355469-.171874.511719-.59375 2.023438-1.425782 3.972656-2.472657 5.804688-3.644531 6.898437-9.59375 12.304687-16.8125 15.273437-.875.429687-1.789062.773437-2.730469 1.023437-.25.171876-.546874.261719-.851562.257813-.695312.246094-1.410156.449219-2.132812.59375-.757813.199219-1.527344.34375-2.304688.429687-.726562.167969-1.472656.253907-2.21875.253907-1.023438.085937-1.964844.171875-2.988281.171875h-102.398438c-18.851562 0-34.132812-15.28125-34.132812-34.132813v-290.132812c0-18.851563 15.28125-34.132813 34.132812-34.132813h102.398438c1.023437 0 1.964843.082032 2.988281.167969.746094 0 1.492188.085937 2.21875.257813.777344.085937 1.546875.226562 2.304688.425781.722656.148437 1.4375.347656 2.132812.597656.304688-.007813.601562.082031.851562.253906.941407.253907 1.855469.597657 2.730469 1.027344 7.21875 2.964844 13.167969 8.371094 16.8125 15.273437.539063.925782.996094 1.894532 1.363281 2.902344.457032.929688.832032 1.902344 1.109376 2.898438.097656.15625.152343.332031.171874.511718.253907.941407.511719 1.878907.769532 2.902344.253906 1.023438.339844 1.878906.425781 2.902344.085937.851562.167969 1.621094.167969 2.390625.074218.535156.101562 1.078125.085937 1.621094 0-18.851563 15.285157-34.132813 34.132813-34.132813h68.269531c18.851563 0 34.132813 15.28125 34.132813 34.132813zm0 0"/></g><path d="m341.332031 42.667969v290.132812c0 1.339844-.085937 2.679688-.253906 4.011719-.085937 1.023438-.257813 1.960938-.425781 2.898438-.171875.941406-.515625 1.964843-.769532 2.902343-.019531.179688-.074218.355469-.171874.511719-.59375 2.023438-1.425782 3.972656-2.472657 5.804688-3.644531 6.898437-9.59375 12.304687-16.8125 15.273437-.875.429687-1.789062.773437-2.730469 1.023437-.25.171876-.546874.261719-.851562.257813-.695312.246094-1.410156.449219-2.132812.59375-.757813.199219-1.527344.34375-2.304688.429687-.726562.167969-1.472656.253907-2.21875.253907-1.023438.085937-1.964844.171875-2.988281.171875h-102.398438c-18.851562 0-34.132812-15.28125-34.132812-34.132813v-290.132812c0-18.851563 15.28125-34.132813 34.132812-34.132813h102.398438c1.023437 0 1.964843.082032 2.988281.167969.746094 0 1.492188.085937 2.21875.257813.777344.085937 1.546875.226562 2.304688.425781.722656.148437 1.4375.347656 2.132812.597656.304688-.007813.601562.082031.851562.253906.941407.253907 1.855469.597657 2.730469 1.027344 7.21875 2.964844 13.167969 8.371094 16.8125 15.273437.539063.925782.996094 1.894532 1.363281 2.902344.457032.929688.832032 1.902344 1.109376 2.898438.097656.15625.152343.332031.171874.511718.253907.941407.511719 1.878907.769532 2.902344.253906 1.023438.339844 1.878906.425781 2.902344.085937.851562.167969 1.621094.167969 2.390625.074218.535156.101562 1.078125.085937 1.621094zm0 0" fill="#00838f"/><path d="m204.800781 8.535156h76.800781c18.851563 0 34.132813 15.28125 34.132813 34.132813v290.132812c0 18.851563-15.28125 34.132813-34.132813 34.132813h-76.800781c-18.851562 0-34.132812-15.28125-34.132812-34.132813v-290.132812c0-18.851563 15.28125-34.132813 34.132812-34.132813zm0 0" fill="#009688"/><path d="m469.332031 119.464844v34.136718s-34.132812 51.199219-34.132812 102.398438h-51.199219s17.066406-76.800781 42.667969-102.398438h-51.203125v-34.136718zm0 0" fill="#fdd834"/><path d="m307.199219 119.464844v34.136718s-34.132813 51.199219-34.132813 102.398438h-51.199218s17.066406-76.800781 42.667968-102.398438h-51.203125v-34.136718zm0 0" fill="#fdd834"/><path d="m136.535156 119.464844v34.136718s-34.136718 51.199219-34.136718 102.398438h-51.199219s17.066406-76.800781 42.667969-102.398438h-51.199219v-34.136718zm0 0" fill="#fdd834"/><path d="m42.667969 375.464844h93.867187c13.480469-.035156 26.144532-6.464844 34.132813-17.328125 7.984375 10.863281 20.648437 17.292969 34.132812 17.328125h102.398438c13.484375-.035156 26.148437-6.464844 34.132812-17.328125 7.988281 10.863281 20.652344 17.292969 34.132813 17.328125h93.867187c23.554688-.027344 42.640625-19.113282 42.667969-42.664063v-290.132812c-.027344-23.554688-19.113281-42.6406252-42.667969-42.667969h-93.867187c-13.480469.0390625-26.144532 6.46875-34.132813 17.332031-7.984375-10.863281-20.648437-17.2929685-34.132812-17.332031h-102.398438c-13.484375.0390625-26.148437 6.46875-34.132812 17.332031-7.988281-10.863281-20.652344-17.2929685-34.132813-17.332031h-93.867187c-23.554688.0273438-42.6406252 19.113281-42.667969 42.667969v290.132812c.0273438 23.550781 19.113281 42.636719 42.667969 42.664063zm332.796875-358.398438h93.867187c14.140625 0 25.601563 11.460938 25.601563 25.601563v290.132812c0 14.136719-11.460938 25.597657-25.601563 25.597657h-93.867187c-14.136719 0-25.597656-11.460938-25.597656-25.597657v-290.132812c0-14.140625 11.460937-25.601563 25.597656-25.601563zm-170.664063 0h102.398438c14.140625 0 25.601562 11.460938 25.601562 25.601563v290.132812c0 14.136719-11.460937 25.597657-25.601562 25.597657h-102.398438c-14.140625 0-25.601562-11.460938-25.601562-25.597657v-290.132812c0-14.140625 11.460937-25.601563 25.601562-25.601563zm-187.734375 25.601563c0-14.140625 11.460938-25.601563 25.601563-25.601563h93.867187c14.136719 0 25.597656 11.460938 25.597656 25.601563v290.132812c0 14.136719-11.460937 25.597657-25.597656 25.597657h-93.867187c-14.140625 0-25.601563-11.460938-25.601563-25.597657zm0 0"/><path d="m375.464844 162.132812h34c-20.542969 33.144532-33.179688 89.25-33.800782 92.015626-.5625 2.527343.054688 5.175781 1.675782 7.195312s4.070312 3.191406 6.660156 3.191406h51.199219c4.714843 0 8.535156-3.824218 8.535156-8.535156 0-47.933594 32.375-97.175781 32.699219-97.671875.933594-1.402344 1.433594-3.046875 1.433594-4.726563v-34.136718c0-4.710938-3.820313-8.53125-8.535157-8.53125h-93.867187c-4.710938 0-8.53125 3.820312-8.53125 8.53125v34.136718c0 4.710938 3.820312 8.53125 8.53125 8.53125zm8.535156-34.132812h76.800781v23.101562c-6.332031 10.066407-30.933593 51.804688-33.851562 96.363282h-32.101563c6.585938-25.445313 20.980469-70.960938 37.851563-87.832032 2.441406-2.441406 3.171875-6.109374 1.847656-9.296874-1.320313-3.1875-4.429687-5.269532-7.878906-5.269532h-42.667969zm0 0"/><path d="m213.332031 162.132812h34c-20.542969 33.144532-33.179687 89.25-33.800781 92.015626-.5625 2.527343.054688 5.175781 1.675781 7.195312 1.621094 2.019531 4.070313 3.191406 6.660157 3.191406h51.199218c4.714844 0 8.535156-3.824218 8.535156-8.535156 0-47.933594 32.375-97.175781 32.699219-97.671875.933594-1.402344 1.429688-3.046875 1.433594-4.726563v-34.136718c0-4.710938-3.820313-8.53125-8.535156-8.53125h-93.867188c-4.710937 0-8.53125 3.820312-8.53125 8.53125v34.136718c0 4.710938 3.820313 8.53125 8.53125 8.53125zm8.535157-34.132812h76.800781v23.101562c-6.332031 10.066407-30.933594 51.804688-33.851563 96.363282h-32.105468c6.589843-25.445313 20.984374-70.960938 37.855468-87.832032 2.441406-2.441406 3.167969-6.109374 1.847656-9.296874-1.320312-3.1875-4.429687-5.269532-7.878906-5.269532h-42.667968zm0 0"/><path d="m42.667969 162.132812h33.996093c-20.539062 33.144532-33.144531 89.25-33.800781 92.015626-.5625 2.527343.054688 5.175781 1.675781 7.195312 1.621094 2.019531 4.070313 3.191406 6.660157 3.191406h51.199219c4.714843 0 8.535156-3.824218 8.535156-8.535156 0-47.933594 32.375-97.175781 32.699218-97.671875.933594-1.402344 1.433594-3.046875 1.433594-4.726563v-34.136718c0-4.710938-3.820312-8.53125-8.53125-8.53125h-93.867187c-4.714844 0-8.535157 3.820312-8.535157 8.53125v34.136718c0 4.710938 3.820313 8.53125 8.535157 8.53125zm8.53125-34.132812h76.800781v23.101562c-6.332031 10.066407-30.933594 51.804688-33.851562 96.363282h-32.101563c6.585937-25.445313 20.984375-70.960938 37.851563-87.832032 2.441406-2.441406 3.171874-6.109374 1.851562-9.296874s-4.433594-5.269532-7.882812-5.269532h-42.667969zm0 0"/><path d="m42.667969 51.199219h8.53125c4.714843 0 8.535156-3.820313 8.535156-8.53125 0-4.714844-3.820313-8.535157-8.535156-8.535157h-8.53125c-4.714844 0-8.535157 3.820313-8.535157 8.535157 0 4.710937 3.820313 8.53125 8.535157 8.53125zm0 0"/><path d="m85.332031 51.199219h42.667969c4.710938 0 8.535156-3.820313 8.535156-8.53125 0-4.714844-3.824218-8.535157-8.535156-8.535157h-42.667969c-4.710937 0-8.53125 3.820313-8.53125 8.535157 0 4.710937 3.820313 8.53125 8.53125 8.53125zm0 0"/><path d="m213.332031 51.199219h8.535157c4.710937 0 8.53125-3.820313 8.53125-8.53125 0-4.714844-3.820313-8.535157-8.53125-8.535157h-8.535157c-4.710937 0-8.53125 3.820313-8.53125 8.535157 0 4.710937 3.820313 8.53125 8.53125 8.53125zm0 0"/><path d="m256 51.199219h42.667969c4.710937 0 8.53125-3.820313 8.53125-8.53125 0-4.714844-3.820313-8.535157-8.53125-8.535157h-42.667969c-4.710938 0-8.535156 3.820313-8.535156 8.535157 0 4.710937 3.824218 8.53125 8.535156 8.53125zm0 0"/><path d="m375.464844 51.199219h8.535156c4.710938 0 8.535156-3.820313 8.535156-8.53125 0-4.714844-3.824218-8.535157-8.535156-8.535157h-8.535156c-4.710938 0-8.53125 3.820313-8.53125 8.535157 0 4.710937 3.820312 8.53125 8.53125 8.53125zm0 0"/><path d="m418.132812 51.199219h42.667969c4.710938 0 8.53125-3.820313 8.53125-8.53125 0-4.714844-3.820312-8.535157-8.53125-8.535157h-42.667969c-4.710937 0-8.53125 3.820313-8.53125 8.535157 0 4.710937 3.820313 8.53125 8.53125 8.53125zm0 0"/><path d="m460.800781 324.265625h-8.535156c-4.710937 0-8.53125 3.820313-8.53125 8.535156 0 4.710938 3.820313 8.53125 8.53125 8.53125h8.535156c4.710938 0 8.53125-3.820312 8.53125-8.53125 0-4.714843-3.820312-8.535156-8.53125-8.535156zm0 0"/><path d="m375.464844 341.332031h42.667968c4.714844 0 8.535157-3.820312 8.535157-8.53125 0-4.714843-3.820313-8.535156-8.535157-8.535156h-42.667968c-4.710938 0-8.53125 3.820313-8.53125 8.535156 0 4.710938 3.820312 8.53125 8.53125 8.53125zm0 0"/><path d="m290.132812 324.265625h-8.53125c-4.714843 0-8.535156 3.820313-8.535156 8.535156 0 4.710938 3.820313 8.53125 8.535156 8.53125h8.53125c4.714844 0 8.535157-3.820312 8.535157-8.53125 0-4.714843-3.820313-8.535156-8.535157-8.535156zm0 0"/><path d="m204.800781 341.332031h42.664063c4.714844 0 8.535156-3.820312 8.535156-8.53125 0-4.714843-3.820312-8.535156-8.535156-8.535156h-42.664063c-4.714843 0-8.535156 3.820313-8.535156 8.535156 0 4.710938 3.820313 8.53125 8.535156 8.53125zm0 0"/><path d="m128 324.265625h-8.535156c-4.710938 0-8.53125 3.820313-8.53125 8.535156 0 4.710938 3.820312 8.53125 8.53125 8.53125h8.535156c4.710938 0 8.535156-3.820312 8.535156-8.53125 0-4.714843-3.824218-8.535156-8.535156-8.535156zm0 0"/><path d="m42.667969 341.332031h42.664062c4.714844 0 8.535157-3.820312 8.535157-8.53125 0-4.714843-3.820313-8.535156-8.535157-8.535156h-42.664062c-4.714844 0-8.535157 3.820313-8.535157 8.535156 0 4.710938 3.820313 8.53125 8.535157 8.53125zm0 0"/></svg>