<?xml version="1.0" encoding="iso-8859-1"?>
<!-- Generator: Adobe Illustrator 19.0.0, SVG Export Plug-In . SVG Version: 6.00 Build 0)  -->
<svg version="1.1" id="Layer_1" xmlns="http://www.w3.org/2000/svg" xmlns:xlink="http://www.w3.org/1999/xlink" x="0px" y="0px"
	 viewBox="0 0 512 512" style="enable-background:new 0 0 512 512;" xml:space="preserve">
<polygon style="fill:#CCCCCC;" points="271.085,8.704 265.284,87.748 225.257,87.748 195.672,8.704 "/>
<polygon style="fill:#B3B3B3;" points="246.795,87.748 232.874,8.704 195.672,8.704 225.257,87.748 "/>
<path style="fill:#CCCCCC;" d="M458.7,496.994c-11.695,11.695-36.186,6.59-57.267-10.999
	c-32.485,19.874-85.518,17.182-145.43,17.182c-9.363,0-18.563,0.07-27.531,0.104c-48.461,0.186-90.495-0.522-117.91-17.287
	C89.48,503.584,65,508.689,53.293,496.994c-12.925-12.925-5.325-41.488,16.974-63.799c2.402-2.402,4.884-4.618,7.402-6.671
	c-0.441-4.664-0.685-9.606-0.685-14.85c0-98.872,80.146-247.353,179.018-247.353c98.86,0,179.006,148.481,179.006,247.353
	c0,5.244-0.232,10.186-0.685,14.85c2.529,2.054,5,4.27,7.402,6.671C464.025,455.506,471.624,484.07,458.7,496.994z"/>
<path style="fill:#B3B3B3;" d="M228.471,503.282c-48.461,0.186-90.495-0.522-117.91-17.287C89.48,503.584,65,508.689,53.293,496.994
	c-12.925-12.925-5.325-41.488,16.974-63.799c2.402-2.402,4.884-4.618,7.402-6.671c-0.441-4.664-0.685-9.606-0.685-14.85
	c0-98.872,80.146-247.353,179.018-247.353C256.002,164.32,90.083,434.866,228.471,503.282z"/>
<g>
	<path style="fill:#F7B239;" d="M300.287,93.351c3.457,3.457,5.604,8.249,5.604,13.539c0,10.569-8.574,19.143-19.143,19.143h-61.49
		c-5.29,0-10.07-2.146-13.539-5.604c-3.469-3.469-5.604-8.261-5.604-13.539c0-10.581,8.562-19.143,19.143-19.143h40.027h21.464
		C292.038,87.748,296.818,89.894,300.287,93.351z"/>
	<path style="fill:#F7B239;" d="M300.287,131.638c3.457,3.457,5.604,8.249,5.604,13.539c0,10.569-8.574,19.143-19.143,19.143
		h-30.745h-30.745c-5.29,0-10.07-2.146-13.539-5.604c-3.469-3.469-5.604-8.261-5.604-13.539c0-10.581,8.562-19.143,19.143-19.143
		h61.49C292.038,126.034,296.818,128.18,300.287,131.638z"/>
</g>
<path style="fill:#E09B2D;" d="M242.658,145.177c0-10.581,8.562-19.143,19.143-19.143c-5.29,0-10.07-2.146-13.539-5.604
	c-3.469-3.469-5.604-8.261-5.604-13.539c0-10.581,8.562-19.143,19.143-19.143h-36.544c-10.581,0-19.143,8.562-19.143,19.143
	c0,5.279,2.135,10.07,5.604,13.539c3.469,3.457,8.249,5.604,13.539,5.604c-10.581,0-19.143,8.562-19.143,19.143
	c0,5.279,2.135,10.07,5.604,13.539c3.469,3.457,8.249,5.604,13.539,5.604h30.745h5.799c-5.29,0-10.07-2.146-13.539-5.604
	C244.793,155.248,242.658,150.456,242.658,145.177z"/>
<polygon style="fill:#CCCCCC;" points="316.321,8.704 286.747,87.748 265.284,87.748 271.085,8.704 "/>
<path style="fill:#FFFFFF;" d="M406.004,420.375c-4.807,0-8.701-3.896-8.701-8.701c0-42.174-18.162-97.166-46.271-140.1
	c-14.451-22.073-30.237-39.411-46.917-51.531c-3.888-2.825-4.749-8.266-1.924-12.154c2.826-3.889,8.268-4.749,12.155-1.925
	c18.394,13.365,35.635,32.232,51.246,56.077c29.837,45.571,49.114,104.306,49.114,149.632
	C414.705,416.479,410.809,420.375,406.004,420.375z"/>
<g>
	<path style="fill:#333333;" d="M286.423,307.192c0,4.806,3.895,8.701,8.701,8.701c4.807,0,8.701-3.896,8.701-8.701
		c0-23.402-16.901-42.918-39.133-47.019v-13.401c0-4.806-3.895-8.701-8.701-8.701s-8.701,3.896-8.701,8.701v13.405
		c-22.225,4.108-39.116,23.62-39.116,47.017c0,23.396,16.891,42.909,39.116,47.017v60.379
		c-12.543-3.756-21.713-15.397-21.713-29.146c0-4.806-3.895-8.701-8.701-8.701s-8.701,3.896-8.701,8.701
		c0,23.396,16.891,42.909,39.116,47.017v13.413c0,4.806,3.895,8.701,8.701,8.701s8.701-3.896,8.701-8.701v-13.411
		c22.234-4.101,39.133-23.618,39.133-47.02s-16.901-42.919-39.133-47.02v-60.38C277.243,281.792,286.423,293.438,286.423,307.192z
		 M225.575,307.192c0-13.748,9.17-25.39,21.713-29.145v58.292C234.745,332.583,225.575,320.942,225.575,307.192z M286.423,385.442
		c0,13.755-9.178,25.401-21.73,29.151v-58.302C277.243,360.04,286.423,371.687,286.423,385.442z"/>
	<path style="fill:#333333;" d="M447.878,427.044c-1.451-1.45-2.963-2.875-4.521-4.26c0.237-3.628,0.357-7.35,0.357-11.112
		c0-51.358-20.635-114.781-53.854-165.519c-25.218-38.518-54.493-65.611-85.306-79.595c6.127-5.112,10.034-12.799,10.034-21.385
		c0-7.41-2.916-14.149-7.653-19.143c4.737-4.995,7.653-11.733,7.653-19.143c0-11.216-6.67-20.897-16.247-25.305l26.134-69.83
		c0.999-2.672,0.627-5.664-0.999-8.009C321.85,1.398,319.178,0,316.325,0H195.672c-2.853,0-5.525,1.398-7.15,3.743
		c-1.625,2.345-1.999,5.337-0.999,8.009l26.135,69.83c-9.577,4.408-16.247,14.088-16.247,25.305c0,7.41,2.916,14.149,7.653,19.143
		c-4.737,4.995-7.653,11.733-7.653,19.143c0,8.584,3.908,16.273,10.035,21.385c-30.814,13.983-60.088,41.075-85.307,79.595
		C88.921,296.89,68.285,360.313,68.285,411.671c0,3.764,0.121,7.484,0.357,11.112c-1.559,1.385-3.07,2.81-4.521,4.26
		c-26.096,26.096-33.553,59.526-16.975,76.105c13.946,13.944,40.304,10.952,64.22-6.72c30.919,15.976,74.935,15.761,125.466,15.511
		c12.594-0.063,25.744-0.063,38.339,0c6.179,0.03,12.254,0.06,18.225,0.06c42.861,0,80.101-1.549,107.24-15.571
		c23.915,17.671,50.272,20.664,64.22,6.72C481.43,486.569,473.975,453.14,447.878,427.044z M214.812,106.886
		c0-5.758,4.684-10.442,10.442-10.442h61.49c5.758,0,10.442,4.684,10.442,10.442s-4.684,10.442-10.442,10.442h-61.49
		C219.496,117.328,214.812,112.643,214.812,106.886z M280.71,79.042h-6.063l4.524-61.639h24.607L280.71,79.042z M261.721,17.403
		l-4.524,61.639h-25.909L208.22,17.403H261.721z M225.254,155.614c-5.758,0-10.442-4.684-10.442-10.442
		c0-5.758,4.684-10.442,10.442-10.442h61.49c5.758,0,10.442,4.684,10.442,10.442c0,5.758-4.684,10.442-10.442,10.442H225.254z
		 M452.547,490.843c-7.955,7.957-28.384,2.788-45.533-11.525c-2.867-2.391-6.934-2.688-10.116-0.743
		c-26.864,16.43-70.793,16.211-121.645,15.962c-6.325-0.031-12.749-0.063-19.256-0.063c-6.506,0-12.93,0.031-19.256,0.063
		c-50.859,0.251-94.781,0.468-121.645-15.962c-3.182-1.946-7.252-1.647-10.116,0.743c-17.148,14.312-37.574,19.484-45.532,11.525
		c-8.164-8.164-3.201-31.319,16.975-51.494c2.108-2.109,4.375-4.155,6.74-6.081c2.252-1.835,3.44-4.674,3.166-7.567
		c-0.427-4.498-0.644-9.219-0.644-14.031c0-48.157,19.546-107.927,51.01-155.986c16.294-24.887,35.215-45.485,54.716-59.568
		c21.226-15.327,42.955-23.099,64.586-23.099s43.36,7.771,64.586,23.099c19.502,14.082,38.421,34.68,54.716,59.568
		c31.463,48.059,51.01,107.829,51.01,155.986c0,4.812-0.217,9.533-0.644,14.031c-0.274,2.892,0.913,5.731,3.166,7.567
		c2.363,1.926,4.63,3.971,6.74,6.081C455.747,459.523,460.71,482.678,452.547,490.843z"/>
</g>
<circle style="fill:#FFFFFF;" cx="288.017" cy="201.143" r="8.701"/>
<g>
</g>
<g>
</g>
<g>
</g>
<g>
</g>
<g>
</g>
<g>
</g>
<g>
</g>
<g>
</g>
<g>
</g>
<g>
</g>
<g>
</g>
<g>
</g>
<g>
</g>
<g>
</g>
<g>
</g>
</svg>
