<?xml version="1.0" encoding="iso-8859-1"?>
<!-- Generator: Adobe Illustrator 19.0.0, SVG Export Plug-In . SVG Version: 6.00 Build 0)  -->
<svg version="1.1" id="Layer_1" xmlns="http://www.w3.org/2000/svg" xmlns:xlink="http://www.w3.org/1999/xlink" x="0px" y="0px"
	 viewBox="0 0 512 512" style="enable-background:new 0 0 512 512;" xml:space="preserve">
<path style="fill:#2BA5F7;" d="M501.828,377.271c-16.384,0-29.667-13.283-29.667-29.667s13.283-29.667,29.667-29.667
	c0.466,0,0.93,0.014,1.391,0.035v-32.342c-0.461,0.021-0.924,0.035-1.391,0.035c-16.384,0-29.667-13.283-29.667-29.667
	s13.283-29.667,29.667-29.667c0.466,0,0.93,0.014,1.391,0.035v-32.343c-0.461,0.021-0.924,0.035-1.391,0.035
	c-16.384,0-29.667-13.283-29.667-29.667s13.283-29.667,29.667-29.667c0.466,0,0.93,0.014,1.391,0.035v-31.033H8.781v31
	c16.384,0,29.667,13.283,29.667,29.667s-13.283,29.667-29.667,29.667v32.273c16.384,0,29.667,13.283,29.667,29.667
	s-13.283,29.667-29.667,29.667v32.273c16.384,0,29.667,13.283,29.667,29.667s-13.283,29.667-29.667,29.667v31h494.438V377.24
	C502.758,377.258,502.295,377.271,501.828,377.271z"/>
<path style="fill:#333333;" d="M503.219,417.052H8.781c-4.849,0-8.781-3.931-8.781-8.781v-31c0-4.849,3.931-8.781,8.781-8.781
	c11.516,0,20.886-9.369,20.886-20.886s-9.37-20.884-20.886-20.884c-4.849,0-8.781-3.931-8.781-8.781v-32.272
	c0-4.849,3.931-8.781,8.781-8.781c11.516,0,20.886-9.369,20.886-20.886s-9.37-20.886-20.886-20.886
	c-4.849,0-8.781-3.932-8.781-8.781v-32.272c0-4.849,3.931-8.781,8.781-8.781c11.516,0,20.886-9.369,20.886-20.886
	s-9.37-20.887-20.886-20.887c-4.849,0-8.781-3.932-8.781-8.781v-30.999c0-4.849,3.931-8.781,8.781-8.781h494.438
	c4.849,0,8.781,3.932,8.781,8.781v31.035c0,2.399-0.981,4.693-2.716,6.349c-1.734,1.658-4.073,2.53-6.467,2.422
	c-0.328-0.015-0.657-0.026-0.988-0.026c-11.516,0-20.886,9.369-20.886,20.886s9.369,20.886,20.886,20.886
	c0.331,0,0.66-0.011,0.988-0.026c2.398-0.104,4.732,0.765,6.467,2.422c1.734,1.657,2.716,3.951,2.716,6.349v32.343
	c0,2.399-0.981,4.693-2.716,6.349s-4.084,2.535-6.467,2.422c-0.328-0.015-0.657-0.026-0.988-0.026
	c-11.516,0-20.886,9.369-20.886,20.886c0,11.517,9.369,20.886,20.886,20.886c0.331,0,0.66-0.011,0.988-0.026
	c2.387-0.115,4.732,0.765,6.467,2.422c1.734,1.657,2.716,3.951,2.716,6.349v32.342c0,2.399-0.981,4.693-2.716,6.349
	s-4.073,2.535-6.467,2.422c-0.328-0.015-0.657-0.026-0.988-0.026c-11.516,0-20.886,9.369-20.886,20.886s9.369,20.886,20.886,20.886
	c0.331,0,0.66-0.011,0.988-0.026c2.398-0.11,4.732,0.766,6.467,2.422S512,374.84,512,377.238v31.034
	C512,413.12,508.068,417.052,503.219,417.052z M17.562,399.49h476.876v-14.15c-17.677-3.455-31.056-19.062-31.056-37.734
	c0-18.673,13.38-34.279,31.056-37.734v-16.136c-17.677-3.455-31.056-19.062-31.056-37.734c0-18.673,13.38-34.279,31.056-37.734
	V202.13c-17.677-3.455-31.056-19.062-31.056-37.734s13.38-34.279,31.056-37.734V112.51H17.562v14.449
	c16.982,3.983,29.667,19.256,29.667,37.436s-12.684,33.454-29.667,37.436v16.733c16.982,3.982,29.667,19.256,29.667,37.436
	s-12.684,33.454-29.667,37.436v16.733c16.982,3.983,29.667,19.256,29.667,37.436s-12.684,33.454-29.667,37.437V399.49z"/>
<rect x="80.386" y="145.95" style="fill:#F7B239;" width="351.236" height="220.108"/>
<path style="fill:#333333;" d="M431.617,374.834H80.382c-4.849,0-8.781-3.931-8.781-8.781V145.946c0-4.849,3.932-8.781,8.781-8.781
	h351.236c4.849,0,8.781,3.932,8.781,8.781v220.108C440.398,370.904,436.467,374.834,431.617,374.834z M89.162,357.272h333.674
	V154.726H89.162C89.162,154.726,89.162,357.272,89.162,357.272z"/>
<g>
	<path style="fill:#FFFFFF;" d="M400.006,194.826H111.993c-4.849,0-8.781-3.932-8.781-8.781c0-4.849,3.932-8.781,8.781-8.781
		h288.013c4.849,0,8.781,3.932,8.781,8.781C408.787,190.894,404.855,194.826,400.006,194.826z"/>
	<path style="fill:#FFFFFF;" d="M400.006,334.735H111.993c-4.849,0-8.781-3.931-8.781-8.781s3.932-8.781,8.781-8.781h288.013
		c4.849,0,8.781,3.931,8.781,8.781S404.855,334.735,400.006,334.735z"/>
</g>
<g>
	<path style="fill:#F95428;" d="M140.677,285.927c4.849,0,8.781-3.932,8.781-8.781v-33.511h9.366c4.849,0,8.781-3.932,8.781-8.781
		c0-4.849-3.932-8.781-8.781-8.781H122.53c-4.849,0-8.781,3.932-8.781,8.781c0,4.849,3.931,8.781,8.781,8.781h9.366v33.511
		C131.896,281.996,135.828,285.927,140.677,285.927z"/>
	<path style="fill:#F95428;" d="M172.874,234.854v42.292c0,4.849,3.932,8.781,8.781,8.781c4.849,0,8.781-3.932,8.781-8.781v-42.292
		c0-4.849-3.932-8.781-8.781-8.781C176.805,226.073,172.874,230.004,172.874,234.854z"/>
	<path style="fill:#F95428;" d="M255.028,226.073c-4.849,0-8.781,3.932-8.781,8.781v42.292c0,4.849,3.932,8.781,8.781,8.781
		c4.849,0,8.781-3.932,8.781-8.781v-6.517l11.742,12.523c1.729,1.844,4.065,2.775,6.408,2.775c2.152,0,4.311-0.787,6.004-2.376
		c3.537-3.317,3.716-8.875,0.399-12.411l-13.912-14.839l13.567-15.708c3.169-3.67,2.764-9.215-0.906-12.386
		c-3.67-3.17-9.216-2.764-12.386,0.906l-10.916,12.639v-6.899C263.809,230.004,259.877,226.073,255.028,226.073z"/>
	<path style="fill:#F95428;" d="M371.322,285.927c4.849,0,8.781-3.932,8.781-8.781v-33.511h9.366c4.849,0,8.781-3.932,8.781-8.781
		c0-4.849-3.931-8.781-8.781-8.781h-36.294c-4.849,0-8.781,3.932-8.781,8.781c0,4.849,3.932,8.781,8.781,8.781h9.366v33.511
		C362.541,281.996,366.472,285.927,371.322,285.927z"/>
	<path style="fill:#F95428;" d="M228.562,243.635c4.849,0,8.781-3.932,8.781-8.781c0-4.849-3.932-8.781-8.781-8.781
		c-16.502,0-29.928,13.425-29.928,29.928s13.425,29.928,29.928,29.928c4.849,0,8.781-3.932,8.781-8.781s-3.932-8.781-8.781-8.781
		c-6.819,0-12.366-5.547-12.366-12.366C216.196,249.182,221.743,243.635,228.562,243.635z"/>
	<path style="fill:#F95428;" d="M329.707,243.635c4.849,0,8.781-3.932,8.781-8.781c0-4.849-3.931-8.781-8.781-8.781h-23.95
		c-4.849,0-8.781,3.932-8.781,8.781v42.292c0,4.849,3.932,8.781,8.781,8.781h23.95c4.849,0,8.781-3.932,8.781-8.781
		s-3.931-8.781-8.781-8.781h-15.169v-3.585h3.194c4.849,0,8.781-3.931,8.781-8.781s-3.931-8.781-8.781-8.781h-3.194v-3.585h15.169
		V243.635z"/>
</g>
<g>
</g>
<g>
</g>
<g>
</g>
<g>
</g>
<g>
</g>
<g>
</g>
<g>
</g>
<g>
</g>
<g>
</g>
<g>
</g>
<g>
</g>
<g>
</g>
<g>
</g>
<g>
</g>
<g>
</g>
</svg>
