<?xml version="1.0" encoding="iso-8859-1"?>
<!-- Generator: Adobe Illustrator 19.0.0, SVG Export Plug-In . SVG Version: 6.00 Build 0)  -->
<svg version="1.1" id="Layer_1" xmlns="http://www.w3.org/2000/svg" xmlns:xlink="http://www.w3.org/1999/xlink" x="0px" y="0px"
	 viewBox="0 0 512 512" style="enable-background:new 0 0 512 512;" xml:space="preserve">
<polygon style="fill:#F7B239;" points="345.159,261.066 353.988,337.998 158.007,337.998 166.836,261.066 186.399,261.066 
	325.596,261.066 "/>
<polygon style="fill:#2BA5F7;" points="458.542,337.998 458.542,502.84 53.453,502.84 53.453,337.998 158.007,337.998 
	353.988,337.998 "/>
<path style="fill:#F95428;" d="M325.596,178.639v82.427H186.399v-82.427c0-38.429,31.164-69.593,69.605-69.593
	S325.596,140.21,325.596,178.639z"/>
<path style="fill:#E54728;" d="M273.709,111.327c-5.654-1.484-11.586-2.28-17.707-2.28c-38.442,0-69.605,31.164-69.605,69.593
	v82.427h35.413v-82.427C221.812,146.328,243.846,119.16,273.709,111.327z"/>
<path style="fill:#FFFFFF;" d="M295.073,209.782c-5.059,0-9.159-4.101-9.159-9.159v-21.979c0-16.495-13.419-29.914-29.914-29.914
	c-5.059,0-9.159-4.101-9.159-9.159c0-5.058,4.099-9.159,9.159-9.159c26.594,0,48.231,21.636,48.231,48.231v21.979
	C304.231,205.683,300.132,209.782,295.073,209.782z"/>
<g>
	<path style="fill:#F95428;" d="M256,77.687c-5.059,0-9.159-4.101-9.159-9.159V9.159C246.841,4.101,250.941,0,256,0
		s9.159,4.101,9.159,9.159v59.369C265.159,73.586,261.058,77.687,256,77.687z"/>
	<path style="fill:#F95428;" d="M428.172,190.489h-59.369c-5.059,0-9.159-4.101-9.159-9.159c0-5.058,4.099-9.159,9.159-9.159h59.369
		c5.059,0,9.159,4.101,9.159,9.159C437.331,186.389,433.232,190.489,428.172,190.489z"/>
	<path style="fill:#F95428;" d="M143.197,190.489H83.828c-5.059,0-9.159-4.101-9.159-9.159c0-5.058,4.099-9.159,9.159-9.159h59.369
		c5.059,0,9.159,4.101,9.159,9.159C152.356,186.389,148.255,190.489,143.197,190.489z"/>
	<path style="fill:#F95428;" d="M176.236,110.726c-2.345,0-4.688-0.894-6.477-2.683l-41.98-41.98c-3.577-3.577-3.577-9.376,0-12.951
		c3.579-3.577,9.377-3.576,12.953,0l41.98,41.98c3.577,3.577,3.577,9.376,0,12.951C180.923,109.832,178.58,110.726,176.236,110.726z
		"/>
	<path style="fill:#F95428;" d="M335.762,110.726c-2.345,0-4.688-0.894-6.477-2.683c-3.577-3.577-3.577-9.376,0-12.953l41.982-41.98
		c3.579-3.577,9.377-3.576,12.953,0c3.577,3.577,3.577,9.376,0,12.953l-41.982,41.98
		C340.45,109.832,338.106,110.726,335.762,110.726z"/>
</g>
<path style="fill:#FFFFFF;" d="M430.627,478.576c-5.059,0-9.159-4.101-9.159-9.159v-70.216c0-5.058,4.099-9.159,9.159-9.159
	c5.059,0,9.159,4.101,9.159,9.159v70.216C439.785,474.476,435.685,478.576,430.627,478.576z"/>
<g>
	<path style="fill:#333333;" d="M458.545,328.837h-96.386l-7.901-68.814c-0.531-4.623-4.445-8.114-9.099-8.114H334.76v-73.265
		c0-43.429-35.332-78.76-78.76-78.76s-78.76,35.331-78.76,78.76v73.265h-10.399c-4.655,0-8.569,3.49-9.099,8.114l-7.901,68.814
		H53.455c-5.059,0-9.159,4.101-9.159,9.159v164.845c0,5.058,4.099,9.159,9.159,9.159h405.089c5.059,0,9.159-4.101,9.159-9.159
		V337.996C467.703,332.938,463.604,328.837,458.545,328.837z M195.557,178.644c0-33.329,27.114-60.443,60.443-60.443
		s60.443,27.114,60.443,60.443v73.265H195.557L195.557,178.644L195.557,178.644z M186.399,270.226h139.203h11.39l2.281,19.869
		H172.727l2.281-19.869H186.399z M170.624,308.413h170.753l2.346,20.425H168.278L170.624,308.413z M449.386,493.683H62.614V347.154
		h386.772V493.683z"/>
	<path style="fill:#333333;" d="M235.383,367.362c-4.858-1.418-9.941,1.371-11.357,6.228l-18.263,62.619l-17.575-43.348
		c-1.401-3.456-4.758-5.717-8.487-5.717c-3.729,0-7.086,2.262-8.487,5.717l-17.575,43.348l-18.263-62.619
		c-1.415-4.854-6.503-7.647-11.357-6.228c-4.856,1.417-7.644,6.5-6.229,11.357l25.643,87.918c1.093,3.743,4.434,6.385,8.328,6.582
		c3.893,0.199,7.487-2.092,8.951-5.705l18.988-46.834l18.988,46.834c1.406,3.469,4.772,5.717,8.484,5.717
		c0.154,0,0.31-0.004,0.466-0.012c3.894-0.198,7.236-2.839,8.328-6.582l25.643-87.918
		C243.028,373.862,240.24,368.778,235.383,367.362z"/>
	<path style="fill:#333333;" d="M274.632,367.606c-5.059,0-9.159,4.101-9.159,9.159v87.918c0,5.058,4.099,9.159,9.159,9.159
		c5.059,0,9.159-4.101,9.159-9.159v-87.918C283.791,371.707,279.69,367.606,274.632,367.606z"/>
	<path style="fill:#333333;" d="M321.921,367.338c-3.949,1.11-6.68,4.714-6.68,8.817v87.918c0,5.058,4.099,9.159,9.159,9.159
		c5.059,0,9.159-4.101,9.159-9.159v-55.347l36.711,60.119c1.695,2.773,4.684,4.386,7.817,4.386c0.823,0,1.656-0.111,2.479-0.343
		c3.949-1.11,6.68-4.714,6.68-8.817v-87.919c0-5.058-4.099-9.159-9.159-9.159s-9.159,4.101-9.159,9.159V431.5l-36.711-60.119
		C330.078,367.88,325.879,366.226,321.921,367.338z"/>
</g>
<g>
	<circle style="fill:#FFFFFF;" cx="295.064" cy="230.539" r="9.159"/>
	<circle style="fill:#FFFFFF;" cx="430.623" cy="367.661" r="9.159"/>
</g>
<g>
</g>
<g>
</g>
<g>
</g>
<g>
</g>
<g>
</g>
<g>
</g>
<g>
</g>
<g>
</g>
<g>
</g>
<g>
</g>
<g>
</g>
<g>
</g>
<g>
</g>
<g>
</g>
<g>
</g>
</svg>
